<svg width="62" height="82" viewBox="0 0 62 82" fill="none" xmlns="http://www.w3.org/2000/svg">
<g id="fire-flame-solid" clip-path="url(#clip0_3653_2984)">
<path id="Vector" opacity="0.4" d="M59.4232 40.7588L59.312 40.4582C53.9109 25.6187 45.0469 12.2822 33.4664 1.52441L32.9422 1.0498C32.3544 0.496094 31.5602 0.179688 30.75 0.179688C29.9398 0.179688 29.1456 0.496094 28.5578 1.0498L28.0336 1.52441C16.4531 12.2822 7.58906 25.6187 2.18802 40.4582L2.07682 40.7588C0.869531 44.0494 0.25 47.5457 0.25 51.0578C0.25 67.685 14.0385 81.1797 30.75 81.1797C47.4615 81.1797 61.25 67.685 61.25 51.0578C61.25 47.5457 60.6305 44.0652 59.4232 40.7588ZM30.2417 23.6412C30.5594 23.2141 31.0677 22.9609 31.5919 22.9609C32.5292 22.9609 33.2917 23.7203 33.2917 24.6537V26.4572C33.2917 27.8652 33.8635 29.21 34.8643 30.1908L43.0453 38.2117C46.556 41.6605 48.5417 46.375 48.5417 51.2793C48.5417 60.8031 40.7896 68.5234 31.2266 68.5234H30.75C20.9169 68.5234 12.9583 60.5975 12.9583 50.8047V49.5074C12.9583 46.1535 14.1974 42.9262 16.4214 40.4266L17.5174 39.1926C17.851 38.8129 18.3276 38.6072 18.8359 38.6072C19.8049 38.6072 20.5833 39.3824 20.5833 40.3475V47.3084C20.5833 51.1527 23.7286 54.2693 27.5888 54.2693C31.4331 54.2693 34.5625 51.1686 34.5625 47.34C34.5625 45.5049 33.8318 43.733 32.5292 42.4357L30.4323 40.3475C28.2083 38.1326 26.9534 35.1109 26.9534 31.9627C26.9534 29.3998 27.7953 26.9002 29.3362 24.8594L30.2576 23.6254L30.2417 23.6412Z" fill="#1A88CA"/>
</g>
<defs>
<clipPath id="clip0_3653_2984">
<rect width="61" height="81" fill="white" transform="translate(0.25 0.179688)"/>
</clipPath>
</defs>
</svg>
