<svg width="90" height="73" viewBox="0 0 90 73" fill="none" xmlns="http://www.w3.org/2000/svg">
<g clip-path="url(#clip0_3624_27802)">
<path d="M11.25 14.8281C11.25 11.6771 8.73281 9.125 5.625 9.125C2.51719 9.125 0 11.6771 0 14.8281V22.8125V31.9375V46.4092C0 50.0449 1.42031 53.5238 3.95156 56.0902L18 70.3338C19.6875 72.0447 21.9797 73 24.3703 73H33.75C37.4766 73 40.5 69.9346 40.5 66.1562V54.9068C40.5 50.6723 38.8406 46.6088 35.8875 43.6146L32.3297 40.0074L30.1922 37.8402L25.6922 33.2777C23.9344 31.4955 21.0797 31.4955 19.3219 33.2777C17.5641 35.06 17.5641 37.9543 19.3219 39.7365L23.8219 44.299L25.9594 46.4662C27.5063 48.0346 27.2531 50.6295 25.4391 51.8557C24.075 52.7824 22.2469 52.5971 21.0797 51.4137L13.8797 44.1279C12.1922 42.417 11.25 40.093 11.25 37.6691V31.9375V20.5312V14.8281ZM78.75 14.8281V20.5312V31.9375V37.6691C78.75 40.093 77.8078 42.417 76.1203 44.1279L68.9344 51.4137C67.7672 52.5971 65.9391 52.7824 64.575 51.8557C62.7609 50.6295 62.5078 48.0203 64.0547 46.4662L66.1922 44.299L70.6922 39.7365C72.45 37.9543 72.45 35.06 70.6922 33.2777C68.9344 31.4955 66.0797 31.4955 64.3219 33.2777L59.8219 37.8402L57.6844 40.0074L54.1266 43.6146C51.1734 46.6088 49.5141 50.6723 49.5141 54.9068V66.1562C49.5141 69.9346 52.5375 73 56.2641 73H65.6437C68.0344 73 70.3266 72.0447 72.0141 70.3338L86.0625 56.0902C88.5938 53.5238 90.0141 50.0449 90.0141 46.4092V31.9375V22.8125V14.8281C90.0141 11.6771 87.4969 9.125 84.3891 9.125C81.2812 9.125 78.7641 11.6771 78.7641 14.8281H78.75Z" fill="#1A88CA"/>
<path d="M45.0004 0C46.8707 0 48.3754 1.52559 48.3754 3.42188V4.91895C49.2754 5.09004 50.1473 5.30391 50.9348 5.51777C52.7348 6.00254 53.8035 7.88457 53.3254 9.70957C52.8473 11.5346 50.991 12.6182 49.191 12.1334C47.6582 11.7199 46.2238 11.4348 44.9441 11.4205C43.9176 11.4062 42.8769 11.6629 42.216 12.0479C41.9207 12.2332 41.7801 12.39 41.7238 12.4756C41.6816 12.5469 41.6254 12.6467 41.6254 12.8748C41.6254 12.9176 41.6254 12.9461 41.6254 12.9604C41.6535 12.9889 41.7519 13.1314 42.0894 13.3311C42.9051 13.8301 44.1144 14.215 45.9426 14.7711L46.0691 14.8139C47.6301 15.2844 49.7113 15.926 51.3988 16.9953C53.3254 18.2215 55.0691 20.2604 55.1113 23.3971C55.1535 26.6051 53.5082 28.9434 51.3566 30.3121C50.4144 30.8967 49.4019 31.3102 48.3613 31.5668V33.0781C48.3613 34.9744 46.8566 36.5 44.9863 36.5C43.116 36.5 41.6113 34.9744 41.6113 33.0781V31.4527C40.2754 31.1248 39.0519 30.6971 38.0113 30.3406C37.716 30.2408 37.4348 30.141 37.1676 30.0555C35.3957 29.4566 34.4394 27.5176 35.0301 25.7211C35.6207 23.9246 37.5332 22.9551 39.3051 23.5539C39.6707 23.6822 40.0082 23.7963 40.3316 23.9104C42.2441 24.5662 43.6223 25.0367 45.0988 25.0938C46.2238 25.1365 47.2223 24.8656 47.7988 24.5092C48.066 24.3381 48.1926 24.1955 48.2488 24.0957C48.3051 24.0102 48.3754 23.8391 48.3613 23.5111V23.4826C48.3613 23.34 48.3613 23.1832 47.7988 22.8268C46.9973 22.3135 45.7879 21.9143 43.9879 21.3582L43.7207 21.2727C42.2019 20.8164 40.2051 20.2033 38.6019 19.2195C36.7035 18.0646 34.8754 16.0828 34.8613 12.9318C34.8473 9.6668 36.6754 7.42832 38.7566 6.17363C39.6566 5.63184 40.6269 5.26113 41.5973 5.00449V3.42188C41.5973 1.52559 43.1019 0 44.9723 0H45.0004Z" fill="white"/>
</g>
<defs>
<clipPath id="clip0_3624_27802">
<rect width="90" height="73" fill="white"/>
</clipPath>
</defs>
</svg>
