<svg width="91" height="80" viewBox="0 0 91 80" fill="none" xmlns="http://www.w3.org/2000/svg">
<g id="plug-circle-bolt-duotone" clip-path="url(#clip0_3653_3006)">
<path id="Vector" opacity="0.4" d="M20.625 5.11719V19.9297H10.625V5.11719C10.625 2.38613 12.8594 0.179688 15.625 0.179688C18.3906 0.179688 20.625 2.38613 20.625 5.11719ZM50.625 5.11719V19.9297H40.625V5.11719C40.625 2.38613 42.8594 0.179688 45.625 0.179688C48.3906 0.179688 50.625 2.38613 50.625 5.11719ZM0.625 29.8047C0.625 27.0736 2.85938 24.8672 5.625 24.8672H55.625C58.3906 24.8672 60.625 27.0736 60.625 29.8047C60.625 30.1596 60.5781 30.5145 60.5156 30.8539C49.0312 34.125 40.625 44.5709 40.625 56.9609C40.625 58.7199 40.7969 60.4326 41.1094 62.099C39.375 62.8859 37.5312 63.4877 35.625 63.8734V74.2422C35.625 76.9732 33.3906 79.1797 30.625 79.1797C27.8594 79.1797 25.625 76.9732 25.625 74.2422V63.8734C14.2188 61.5898 5.625 51.6223 5.625 39.6797V34.7422C2.85938 34.7422 0.625 32.5357 0.625 29.8047Z" fill="#1A88CA"/>
<path id="Vector_2" d="M45.625 56.9609C45.625 51.0682 47.9955 45.4167 52.2151 41.2499C56.4347 37.0831 62.1576 34.7422 68.125 34.7422C74.0924 34.7422 79.8153 37.0831 84.0349 41.2499C88.2545 45.4167 90.625 51.0682 90.625 56.9609C90.625 62.8537 88.2545 68.5051 84.0349 72.672C79.8153 76.8388 74.0924 79.1797 68.125 79.1797C62.1576 79.1797 56.4347 76.8388 52.2151 72.672C47.9955 68.5051 45.625 62.8537 45.625 56.9609ZM76.0156 46.7465C76.4531 45.975 76.2812 45.0338 75.6094 44.4475C74.9375 43.8611 73.9531 43.8303 73.25 44.3549L58.25 55.4643C57.6094 55.9426 57.3438 56.7758 57.5938 57.5318C57.8438 58.2879 58.5625 58.7971 59.375 58.7971H64.9375L60.2344 67.16C59.7969 67.9314 59.9688 68.8727 60.6406 69.459C61.3125 70.0453 62.2969 70.0762 63 69.5516L78 58.4422C78.6406 57.9639 78.9062 57.1307 78.6562 56.3746C78.4062 55.6186 77.6875 55.1094 76.875 55.1094H71.3125L76.0156 46.7465Z" fill="#1A88CA"/>
</g>
<defs>
<clipPath id="clip0_3653_3006">
<rect width="90" height="79" fill="white" transform="translate(0.625 0.179688)"/>
</clipPath>
</defs>
</svg>
