<svg width="80" height="79" viewBox="0 0 80 79" fill="none" xmlns="http://www.w3.org/2000/svg">
<g clip-path="url(#clip0_3624_27701)">
<path opacity="0.4" d="M40.125 4.9375C42.8561 4.9375 45.0625 7.14395 45.0625 9.875V11.7266L40.125 12.3438L35.1875 11.7266V9.875C35.1875 7.14395 37.3939 4.9375 40.125 4.9375ZM40.125 17.2812L45.0625 17.8984V29.625H69.75V69.125H10.5V29.625H35.1875V17.8984L40.125 17.2812Z" fill="#F15F22"/>
<path d="M20.375 19.75L40.125 17.2812L59.875 19.75C62.6061 19.75 64.8125 17.5436 64.8125 14.8125C64.8125 12.0814 62.6061 9.875 59.875 9.875L40.125 12.3438L20.375 9.875C17.6439 9.875 15.4375 12.0814 15.4375 14.8125C15.4375 17.5436 17.6439 19.75 20.375 19.75ZM5.5625 24.6875C2.83145 24.6875 0.625 26.8939 0.625 29.625V69.125C0.625 71.8561 2.83145 74.0625 5.5625 74.0625C8.29355 74.0625 10.5 71.8561 10.5 69.125V29.625C10.5 26.8939 8.29355 24.6875 5.5625 24.6875ZM79.625 29.625C79.625 26.8939 77.4186 24.6875 74.6875 24.6875C71.9564 24.6875 69.75 26.8939 69.75 29.625V69.125C69.75 71.8561 71.9564 74.0625 74.6875 74.0625C77.4186 74.0625 79.625 71.8561 79.625 69.125V29.625Z" fill="#F15F22"/>
</g>
<defs>
<clipPath id="clip0_3624_27701">
<rect width="79" height="79" fill="white" transform="translate(0.625)"/>
</clipPath>
</defs>
</svg>
