<svg width="82" height="73" viewBox="0 0 82 73" fill="none" xmlns="http://www.w3.org/2000/svg">
<path opacity="0.4" d="M25.0557 9.125C21.2831 9.125 18.2223 12.1904 18.2223 15.9688V39.4229C18.2223 41.8895 17.2116 43.9711 16.0442 45.4824C14.5494 47.4215 13.6668 49.8311 13.6668 52.4688C13.6668 58.7707 18.7633 63.875 25.0557 63.875C31.348 63.875 36.4446 58.7707 36.4446 52.4688C36.4446 49.8311 35.5619 47.4215 34.0671 45.4967C32.8998 43.9854 31.889 41.9037 31.889 39.4371V15.9688C31.889 12.1904 28.8282 9.125 25.0557 9.125ZM9.11122 15.9688C9.11122 7.15742 16.2435 0 25.0557 0C33.8678 0 41.0001 7.14316 41.0001 15.9688V39.4229C41.0001 39.4371 41.0143 39.4656 41.0286 39.5084C41.0571 39.5939 41.1425 39.7365 41.2706 39.9076C43.9612 43.3865 45.5557 47.7494 45.5557 52.4688C45.5557 63.8037 36.3734 73 25.0557 73C13.738 73 4.55566 63.8037 4.55566 52.4688C4.55566 47.7352 6.15011 43.3723 8.84073 39.9076C8.96886 39.7365 9.05428 39.5939 9.08275 39.5084C9.09698 39.4656 9.11122 39.4371 9.11122 39.4229V15.9688Z" fill="#F15F22"/>
<path d="M68.3333 50.1875H72.8888C74.7253 50.1875 76.3909 51.2996 77.1027 53.0105C77.8145 54.7215 77.4159 56.6748 76.1204 57.9865L67.0093 67.1115C65.2298 68.8938 62.3399 68.8938 60.5604 67.1115L51.4493 57.9865C50.1395 56.6748 49.7552 54.7215 50.467 53.0105C51.1788 51.2996 52.8302 50.1875 54.6809 50.1875H59.2364V9.125C59.2364 6.60137 61.2722 4.5625 63.792 4.5625C66.3118 4.5625 68.3475 6.60137 68.3475 9.125V50.1875H68.3333ZM31.8888 52.4688C31.8888 56.2471 28.8281 59.3125 25.0555 59.3125C21.2829 59.3125 18.2222 56.2471 18.2222 52.4688C18.2222 49.4889 20.1298 46.951 22.7777 46.01V38.7812C22.7777 37.5266 23.8027 36.5 25.0555 36.5C26.3083 36.5 27.3333 37.5266 27.3333 38.7812V46.01C29.9812 46.951 31.8888 49.4889 31.8888 52.4688Z" fill="#F15F22"/>
</svg>
