<svg width="90" height="79" viewBox="0 0 90 79" fill="none" xmlns="http://www.w3.org/2000/svg">
<g clip-path="url(#clip0_3624_27711)">
<path opacity="0.4" d="M20 4.9375V19.75H10V4.9375C10 2.20645 12.2344 0 15 0C17.7656 0 20 2.20645 20 4.9375ZM50 4.9375V19.75H40V4.9375C40 2.20645 42.2344 0 45 0C47.7656 0 50 2.20645 50 4.9375ZM0 29.625C0 26.8939 2.23438 24.6875 5 24.6875H55C57.7656 24.6875 60 26.8939 60 29.625C60 29.9799 59.9531 30.3348 59.8906 30.6742C48.4062 33.9453 40 44.3912 40 56.7812C40 58.5402 40.1719 60.2529 40.4844 61.9193C38.75 62.7062 36.9062 63.308 35 63.6937V74.0625C35 76.7936 32.7656 79 30 79C27.2344 79 25 76.7936 25 74.0625V63.6937C13.5938 61.4102 5 51.4426 5 39.5V34.5625C2.23438 34.5625 0 32.3561 0 29.625Z" fill="#F15F22"/>
<path d="M45 56.7812C45 50.8885 47.3705 45.237 51.5901 41.0702C55.8097 36.9034 61.5326 34.5625 67.5 34.5625C73.4674 34.5625 79.1903 36.9034 83.4099 41.0702C87.6295 45.237 90 50.8885 90 56.7812C90 62.674 87.6295 68.3255 83.4099 72.4923C79.1903 76.6591 73.4674 79 67.5 79C61.5326 79 55.8097 76.6591 51.5901 72.4923C47.3705 68.3255 45 62.674 45 56.7812ZM75.3906 46.5668C75.8281 45.7953 75.6562 44.8541 74.9844 44.2678C74.3125 43.6814 73.3281 43.6506 72.625 44.1752L57.625 55.2846C56.9844 55.7629 56.7188 56.5961 56.9688 57.3521C57.2188 58.1082 57.9375 58.6174 58.75 58.6174H64.3125L59.6094 66.9803C59.1719 67.7518 59.3438 68.693 60.0156 69.2793C60.6875 69.8656 61.6719 69.8965 62.375 69.3719L77.375 58.2625C78.0156 57.7842 78.2812 56.951 78.0312 56.1949C77.7812 55.4389 77.0625 54.9297 76.25 54.9297H70.6875L75.3906 46.5668Z" fill="#F15F22"/>
</g>
<defs>
<clipPath id="clip0_3624_27711">
<rect width="90" height="79" fill="white"/>
</clipPath>
</defs>
</svg>
