<svg width="71" height="79" viewBox="0 0 71 79" fill="none" xmlns="http://www.w3.org/2000/svg">
<g clip-path="url(#clip0_3624_29666)">
<path opacity="0.4" d="M25.625 13.5781C25.625 12.596 26.0201 11.6541 26.7233 10.9596C27.4266 10.2651 28.3804 9.875 29.375 9.875C30.3696 9.875 31.3234 10.2651 32.0266 10.9596C32.7299 11.6541 33.125 12.596 33.125 13.5781C33.125 14.5603 32.7299 15.5022 32.0266 16.1966C31.3234 16.8911 30.3696 17.2812 29.375 17.2812C28.3804 17.2812 27.4266 16.8911 26.7233 16.1966C26.0201 15.5022 25.625 14.5603 25.625 13.5781ZM25.1094 32.8189C26.0781 31.8623 27.6719 31.8623 28.6406 32.8189L31.875 36.0129C33.4687 37.5867 34.375 39.7314 34.375 41.9687C34.375 44.2061 33.4687 46.3508 31.875 47.9246L30.4063 49.375C29.75 50.023 29.375 50.918 29.375 51.8437C29.375 52.7695 29.75 53.6644 30.4063 54.3125L33.6406 57.5064C34.6094 58.4631 34.6094 60.0369 33.6406 60.9935C32.6719 61.9502 31.0781 61.9502 30.1094 60.9935L26.875 57.7996C25.2812 56.2258 24.375 54.0811 24.375 51.8437C24.375 49.6064 25.2812 47.4617 26.875 45.8879L28.3437 44.4375C29 43.7895 29.375 42.8945 29.375 41.9687C29.375 41.043 29 40.148 28.3437 39.5L25.1094 36.3061C24.1406 35.3494 24.1406 33.7756 25.1094 32.8189ZM41.1406 32.8189L44.375 36.0129C45.9687 37.5867 46.875 39.7314 46.875 41.9687C46.875 44.2061 45.9687 46.3508 44.375 47.9246L42.9062 49.375C42.25 50.023 41.875 50.918 41.875 51.8437C41.875 52.7695 42.25 53.6644 42.9062 54.3125L46.1406 57.5064C47.1094 58.4631 47.1094 60.0369 46.1406 60.9935C45.1719 61.9502 43.5781 61.9502 42.6094 60.9935L39.375 57.7996C37.7812 56.2258 36.875 54.0811 36.875 51.8437C36.875 49.6064 37.7812 47.4617 39.375 45.8879L40.8437 44.4375C41.5 43.7895 41.875 42.8945 41.875 41.9687C41.875 41.043 41.5 40.148 40.8437 39.5L37.6094 36.3061C36.6406 35.3494 36.6406 33.7756 37.6094 32.8189C38.5781 31.8623 40.1719 31.8623 41.1406 32.8189Z" fill="#1A88CA"/>
<path d="M10.625 0C5.10938 0 0.625 4.42832 0.625 9.875V69.125C0.625 74.5717 5.10938 79 10.625 79H60.625C66.1406 79 70.625 74.5717 70.625 69.125V9.875C70.625 4.42832 66.1406 0 60.625 0H10.625ZM35.625 24.6875C38.5797 24.6875 41.5056 25.2622 44.2354 26.3788C46.9652 27.4954 49.4456 29.132 51.5349 31.1952C53.6242 33.2584 55.2816 35.7078 56.4123 38.4035C57.543 41.0992 58.125 43.9884 58.125 46.9062C58.125 49.8241 57.543 52.7133 56.4123 55.409C55.2816 58.1047 53.6242 60.5541 51.5349 62.6173C49.4456 64.6805 46.9652 66.3171 44.2354 67.4337C41.5056 68.5503 38.5797 69.125 35.625 69.125C32.6703 69.125 29.7444 68.5503 27.0146 67.4337C24.2848 66.3171 21.8044 64.6805 19.7151 62.6173C17.6258 60.5541 15.9684 58.1047 14.8377 55.409C13.707 52.7133 13.125 49.8241 13.125 46.9062C13.125 43.9884 13.707 41.0992 14.8377 38.4035C15.9684 35.7078 17.6258 33.2584 19.7151 31.1952C21.8044 29.132 24.2848 27.4954 27.0146 26.3788C29.7444 25.2622 32.6703 24.6875 35.625 24.6875ZM10.625 13.5781C10.625 13.0918 10.722 12.6103 10.9105 12.161C11.0989 11.7117 11.3751 11.3035 11.7233 10.9596C12.0716 10.6158 12.485 10.343 12.9399 10.1569C13.3949 9.97078 13.8825 9.875 14.375 9.875C14.8675 9.875 15.3551 9.97078 15.8101 10.1569C16.265 10.343 16.6784 10.6158 17.0267 10.9596C17.3749 11.3035 17.6511 11.7117 17.8395 12.161C18.028 12.6103 18.125 13.0918 18.125 13.5781C18.125 14.0644 18.028 14.546 17.8395 14.9952C17.6511 15.4445 17.3749 15.8528 17.0267 16.1966C16.6784 16.5405 16.265 16.8133 15.8101 16.9994C15.3551 17.1855 14.8675 17.2812 14.375 17.2812C13.8825 17.2812 13.3949 17.1855 12.9399 16.9994C12.485 16.8133 12.0716 16.5405 11.7233 16.1966C11.3751 15.8528 11.0989 15.4445 10.9105 14.9952C10.722 14.546 10.625 14.0644 10.625 13.5781ZM29.375 9.875C29.8675 9.875 30.3551 9.97078 30.8101 10.1569C31.265 10.343 31.6784 10.6158 32.0267 10.9596C32.3749 11.3035 32.6511 11.7117 32.8396 12.161C33.028 12.6103 33.125 13.0918 33.125 13.5781C33.125 14.0644 33.028 14.546 32.8396 14.9952C32.6511 15.4445 32.3749 15.8528 32.0267 16.1966C31.6784 16.5405 31.265 16.8133 30.8101 16.9994C30.3551 17.1855 29.8675 17.2812 29.375 17.2812C28.8825 17.2812 28.3949 17.1855 27.9399 16.9994C27.485 16.8133 27.0716 16.5405 26.7233 16.1966C26.3751 15.8528 26.0989 15.4445 25.9105 14.9952C25.722 14.546 25.625 14.0644 25.625 13.5781C25.625 13.0918 25.722 12.6103 25.9105 12.161C26.0989 11.7117 26.3751 11.3035 26.7233 10.9596C27.0716 10.6158 27.485 10.343 27.9399 10.1569C28.3949 9.97078 28.8825 9.875 29.375 9.875Z" fill="#1A88CA"/>
</g>
<defs>
<clipPath id="clip0_3624_29666">
<rect width="70" height="79" fill="white" transform="translate(0.625)"/>
</clipPath>
</defs>
</svg>
