<svg width="73" height="73" viewBox="0 0 73 73" fill="none" xmlns="http://www.w3.org/2000/svg">
<path d="M38.4106 0.413477C37.8118 0.142578 37.1702 0 36.5001 0C35.83 0 35.1884 0.142578 34.5895 0.413477L7.74206 11.8055C4.60534 13.1314 2.26706 16.2254 2.28131 19.9609C2.3526 34.1047 8.16979 59.9826 32.736 71.7453C35.1171 72.8859 37.8831 72.8859 40.2641 71.7453C64.8303 59.9826 70.6475 34.1047 70.7188 19.9609C70.7331 16.2254 68.3948 13.1314 65.2581 11.8055L38.4106 0.413477ZM52.6114 29.7988L34.3614 48.0488C33.0212 49.3891 30.854 49.3891 29.528 48.0488L20.403 38.9238C19.0628 37.5836 19.0628 35.4164 20.403 34.0904C21.7432 32.7645 23.9104 32.7502 25.2364 34.0904L31.9376 40.7916L47.7637 24.9512C49.104 23.6109 51.2712 23.6109 52.5971 24.9512C53.9231 26.2914 53.9374 28.4586 52.5971 29.7846L52.6114 29.7988Z" fill="#1A88CA"/>
<path d="M52.612 24.9505C53.9522 26.2907 53.9522 28.4579 52.612 29.7839L34.362 48.0481C33.0218 49.3884 30.8546 49.3884 29.5286 48.0481L20.4036 38.9231C19.0634 37.5829 19.0634 35.4157 20.4036 34.0897C21.7438 32.7638 23.911 32.7495 25.237 34.0897L31.9382 40.7909L47.7644 24.9505C49.1046 23.6103 51.2718 23.6103 52.5978 24.9505H52.612Z" fill="white"/>
</svg>
