<svg width="83" height="74" viewBox="0 0 83 74" fill="none" xmlns="http://www.w3.org/2000/svg">
<g id="temperature-arrow-down-duotone 1" clip-path="url(#clip0_3653_3032)">
<path id="Vector" opacity="0.4" d="M25.6807 9.30469C21.9081 9.30469 18.8473 12.3701 18.8473 16.1484V39.6025C18.8473 42.0691 17.8366 44.1508 16.6692 45.6621C15.1744 47.6012 14.2918 50.0107 14.2918 52.6484C14.2918 58.9504 19.3883 64.0547 25.6807 64.0547C31.973 64.0547 37.0696 58.9504 37.0696 52.6484C37.0696 50.0107 36.1869 47.6012 34.6921 45.6764C33.5248 44.165 32.514 42.0834 32.514 39.6168V16.1484C32.514 12.3701 29.4532 9.30469 25.6807 9.30469ZM9.73622 16.1484C9.73622 7.33711 16.8685 0.179688 25.6807 0.179688C34.4928 0.179688 41.6251 7.32285 41.6251 16.1484V39.6025C41.6251 39.6168 41.6393 39.6453 41.6536 39.6881C41.6821 39.7736 41.7675 39.9162 41.8956 40.0873C44.5862 43.5662 46.1807 47.9291 46.1807 52.6484C46.1807 63.9834 36.9984 73.1797 25.6807 73.1797C14.363 73.1797 5.18066 63.9834 5.18066 52.6484C5.18066 47.9148 6.77511 43.552 9.46573 40.0873C9.59386 39.9162 9.67928 39.7736 9.70775 39.6881C9.72198 39.6453 9.73622 39.6168 9.73622 39.6025V16.1484Z" fill="#1A88CA"/>
<path id="Vector_2" d="M68.9583 50.3672H73.5138C75.3503 50.3672 77.0159 51.4793 77.7277 53.1902C78.4395 54.9012 78.0409 56.8545 76.7454 58.1662L67.6343 67.2912C65.8548 69.0734 62.9649 69.0734 61.1854 67.2912L52.0743 58.1662C50.7645 56.8545 50.3802 54.9012 51.092 53.1902C51.8038 51.4793 53.4552 50.3672 55.3059 50.3672H59.8614V9.30469C59.8614 6.78105 61.8972 4.74219 64.417 4.74219C66.9368 4.74219 68.9725 6.78105 68.9725 9.30469V50.3672H68.9583ZM32.5138 52.6484C32.5138 56.4268 29.4531 59.4922 25.6805 59.4922C21.9079 59.4922 18.8472 56.4268 18.8472 52.6484C18.8472 49.6686 20.7548 47.1307 23.4027 46.1897V38.9609C23.4027 37.7062 24.4277 36.6797 25.6805 36.6797C26.9333 36.6797 27.9583 37.7062 27.9583 38.9609V46.1897C30.6062 47.1307 32.5138 49.6686 32.5138 52.6484Z" fill="#1A88CA"/>
</g>
<defs>
<clipPath id="clip0_3653_3032">
<rect width="82" height="73" fill="white" transform="translate(0.625 0.179688)"/>
</clipPath>
</defs>
</svg>
