<?xml version="1.0" encoding="utf-8"?>
<!-- Generator: Adobe Illustrator 27.2.0, SVG Export Plug-In . SVG Version: 6.00 Build 0)  -->
<svg version="1.1" id="Layer_1" xmlns="http://www.w3.org/2000/svg" xmlns:xlink="http://www.w3.org/1999/xlink" x="0px" y="0px"
	 viewBox="0 0 19 20" style="enable-background:new 0 0 19 20;" xml:space="preserve">
<path d="M16.1,10c0,0.7-0.2,1.4-0.6,2c-0.4,0.6-1,1.1-1.6,1.3c-0.7,0.3-1.4,0.3-2.1,0.2c-0.7-0.1-1.4-0.5-1.9-1
	c-0.5-0.5-0.9-1.2-1-1.9C8.7,10,8.8,9.2,9.1,8.6c0.3-0.7,0.7-1.2,1.3-1.6c0.6-0.4,1.3-0.6,2-0.6c1,0,1.9,0.4,2.6,1.1
	C15.7,8.1,16.1,9,16.1,10z"/>
<path d="M12.4,18.1c-1.3,0-2.7-0.3-3.8-1c-1.2-0.6-2.2-1.6-2.9-2.7c-0.7-1.1-1.2-2.4-1.3-3.7C4.2,9.4,4.4,8,5,6.8
	c0.5-1.2,1.3-2.3,2.4-3.1C8.4,2.8,9.6,2.2,11,2c1.3-0.2,2.7-0.1,3.9,0.3c1.3,0.4,2.4,1.1,3.4,2.1c-1-1.4-2.3-2.6-3.8-3.3
	c-1.5-0.8-3.3-1.1-5-1C7.7,0.1,6.1,0.7,4.6,1.6C3.1,2.5,2,3.8,1.2,5.3C0.4,6.9,0,8.6,0,10.3c0,1.7,0.5,3.4,1.4,4.9
	c0.9,1.5,2.1,2.7,3.6,3.5C6.6,19.6,8.3,20,10,20c3.5,0,6.5-1.6,8.3-4.4C16.8,17.2,14.8,18.1,12.4,18.1z"/>
</svg>
