<svg width="19" height="20" viewBox="0 0 19 20" fill="none" xmlns="http://www.w3.org/2000/svg">
<path d="M16.0759 9.97789C16.0759 10.699 15.8621 11.4039 15.4615 12.0034C15.0609 12.603 14.4914 13.0703 13.8252 13.3462C13.1591 13.6222 12.426 13.6944 11.7188 13.5537C11.0115 13.413 10.3619 13.0658 9.85203 12.5559C9.34215 12.046 8.99491 11.3964 8.85423 10.6892C8.71356 9.98194 8.78576 9.24887 9.06171 8.58268C9.33765 7.91649 9.80495 7.34708 10.4045 6.94646C11.0041 6.54585 11.709 6.33203 12.43 6.33203C13.397 6.33203 14.3243 6.71614 15.0081 7.39987C15.6918 8.08361 16.0759 9.01095 16.0759 9.97789Z" fill="white"/>
<path d="M12.417 18.0611C11.0776 18.0621 9.75876 17.7307 8.57883 17.0967C7.39891 16.4626 6.39471 15.5458 5.65623 14.4283C4.91775 13.3107 4.46805 12.0274 4.34744 10.6934C4.22683 9.35936 4.43906 8.01624 4.96513 6.78438C5.4912 5.55253 6.31468 4.47043 7.36175 3.63505C8.40883 2.79968 9.6468 2.23712 10.9647 1.9978C12.2827 1.75848 13.6394 1.84987 14.9133 2.26378C16.1872 2.67768 17.3386 3.40117 18.2642 4.36943C17.2935 2.94469 15.9709 1.79512 14.4249 1.03227C12.8789 0.269423 11.1619 -0.080779 9.4406 0.0156606C7.71932 0.1121 6.05219 0.651908 4.60106 1.58268C3.14992 2.51345 1.96406 3.80357 1.15858 5.32782C0.353104 6.85207 -0.044633 8.55866 0.00397665 10.282C0.0525863 12.0053 0.545889 13.6867 1.43601 15.1631C2.32613 16.6396 3.58283 17.8608 5.08412 18.7083C6.58542 19.5558 8.28032 20.0007 10.0043 20C13.5381 20 16.4756 18.3694 18.2565 15.6051C16.7661 17.2382 14.7941 18.0611 12.417 18.0611Z" fill="white"/>
</svg>
