<svg width="482" height="392" viewBox="0 0 482 392" fill="none" xmlns="http://www.w3.org/2000/svg">
<path d="M248.754 206.046H230.887V385.914H248.754V206.046Z" fill="#1A88CA"/>
<path d="M248.753 206.116H230.816V212.335H248.753V206.116Z" fill="#1A88CA"/>
<path d="M248.753 206.116H230.816V212.335H248.753V206.116Z" fill="black" fill-opacity="0.2"/>
<path d="M344.416 60.6015V146.305L283.835 206.907H198.161L137.584 146.305V60.6015L198.161 0H283.835L344.416 60.6015Z" fill="#1A88CA"/>
<path d="M344.416 60.6015V146.305L283.836 206.907H198.162L157.629 166.36C309.967 188.817 311.551 27.7245 311.551 27.7245L344.419 60.6046L344.416 60.6015Z" fill="#1A88CA"/>
<path d="M344.416 60.6015V146.305L283.836 206.907H198.162L157.629 166.36C309.967 188.817 311.551 27.7245 311.551 27.7245L344.419 60.6046L344.416 60.6015Z" fill="black" fill-opacity="0.2"/>
<path fill-rule="evenodd" clip-rule="evenodd" d="M201.536 8.1494H280.463L336.269 63.9777V142.929L280.463 198.757H201.536L145.73 142.929V63.9777L201.536 8.1494ZM203.114 11.959L149.539 65.5556V141.351L203.114 194.948H278.886L332.461 141.351V65.5556L278.886 11.959H203.114Z" fill="white"/>
<path d="M248.754 206.046H241.582V385.914H248.754V206.046Z" fill="#1A88CA"/>
<path d="M248.754 206.046H241.582V385.914H248.754V206.046Z" fill="black" fill-opacity="0.2"/>
<path d="M218.13 110.336C217.054 109.85 215.616 109.603 213.855 109.603H212.735V83.9608C212.735 79.8749 210.91 77.8019 207.314 77.8019C206.185 77.8019 205.201 78.186 204.395 78.9448C203.636 79.6591 202.659 80.8178 201.491 82.3925L183.719 106.174C183.227 106.825 182.811 107.371 182.478 107.818C182.138 108.272 181.808 108.745 181.494 109.228C181.167 109.73 180.92 110.215 180.758 110.669C180.59 111.139 180.504 111.609 180.504 112.069C180.504 113.812 181.075 115.212 182.202 116.235C183.319 117.247 185.001 117.762 187.197 117.762H203.709V123.679C203.709 125.432 204.125 126.784 204.95 127.702C205.781 128.629 206.883 129.102 208.225 129.102C209.568 129.102 210.694 128.641 211.516 127.736C212.329 126.841 212.741 125.476 212.741 123.679V117.762H214.464C216.223 117.762 217.571 117.444 218.473 116.816C219.409 116.162 219.885 115.12 219.885 113.717C219.885 112 219.298 110.86 218.136 110.336H218.13ZM203.709 91.4149V109.603H190.253L203.709 91.4149Z" fill="white"/>
<path d="M252.43 82.5798C250.986 81.1131 249.285 79.9829 247.375 79.2178C245.467 78.4559 243.316 78.0717 240.983 78.0717C237.448 78.0717 234.357 78.9416 231.799 80.6591C229.241 82.3766 227.267 84.9036 225.928 88.1736C225.163 90.1355 224.591 92.507 224.233 95.2245C223.874 97.9294 223.693 101.015 223.693 104.39C223.693 107.012 223.858 109.482 224.182 111.733C224.509 113.993 225.026 116.085 225.728 117.962C227.108 121.403 229.193 124.136 231.926 126.089C234.661 128.044 237.8 129.035 241.25 129.035C244.245 129.035 247.006 128.298 249.463 126.844C251.913 125.39 253.938 123.298 255.48 120.619C256.699 118.45 257.546 116 258 113.336C258.447 110.692 258.676 107.491 258.676 103.822C258.676 97.0531 257.809 91.7387 256.099 88.0212C255.102 85.8719 253.871 84.0433 252.43 82.5798ZM234.293 113.692C233.808 111.041 233.56 107.584 233.56 103.418C233.56 97.2912 234.134 92.7038 235.264 89.7831C236.372 86.9196 238.285 85.5291 241.116 85.5291C243.065 85.5291 244.607 86.164 245.702 87.4148C246.819 88.6942 247.632 90.6308 248.111 93.1673C248.596 95.742 248.844 99.104 248.844 103.155C248.844 107.431 248.609 110.933 248.146 113.565C247.689 116.158 246.886 118.174 245.766 119.555C244.658 120.92 243.16 121.584 241.186 121.584C239.212 121.584 237.813 120.946 236.705 119.635C235.585 118.308 234.772 116.311 234.293 113.698V113.692Z" fill="white"/>
<path d="M299.747 110.336C298.671 109.85 297.234 109.603 295.472 109.603H294.352V83.9608C294.352 79.8749 292.527 77.8019 288.931 77.8019C287.802 77.8019 286.818 78.186 286.012 78.9448C285.253 79.6591 284.276 80.8178 283.108 82.3925L265.336 106.174C264.844 106.825 264.428 107.371 264.095 107.818C263.755 108.272 263.422 108.745 263.111 109.228C262.784 109.73 262.537 110.215 262.375 110.669C262.207 111.139 262.121 111.609 262.121 112.069C262.121 113.812 262.692 115.212 263.819 116.235C264.936 117.247 266.618 117.762 268.814 117.762H285.326V123.679C285.326 125.432 285.742 126.784 286.564 127.702C287.395 128.629 288.497 129.102 289.839 129.102C291.182 129.102 292.308 128.641 293.13 127.736C293.943 126.841 294.355 125.476 294.355 123.679V117.762H296.078C297.837 117.762 299.185 117.444 300.087 116.816C301.023 116.162 301.499 115.12 301.499 113.717C301.499 112 300.912 110.86 299.75 110.336H299.747ZM285.326 91.4149V109.603H271.87L285.326 91.4149Z" fill="white"/>
<path d="M372.644 385.359H106.403C104.596 385.359 103.131 386.824 103.131 388.632V388.727C103.131 390.535 104.596 392 106.403 392H372.644C374.451 392 375.916 390.535 375.916 388.727V388.632C375.916 386.824 374.451 385.359 372.644 385.359Z" fill="#1A88CA"/>
<path d="M372.644 385.359H106.403C104.596 385.359 103.131 386.824 103.131 388.632V388.727C103.131 390.535 104.596 392 106.403 392H372.644C374.451 392 375.916 390.535 375.916 388.727V388.632C375.916 386.824 374.451 385.359 372.644 385.359Z" fill="black" fill-opacity="0.3"/>
<path d="M111.449 385.359H68.3364C66.5294 385.359 65.0645 386.824 65.0645 388.632V388.727C65.0645 390.535 66.5294 392 68.3364 392H111.449C113.257 392 114.721 390.535 114.721 388.727V388.632C114.721 386.824 113.257 385.359 111.449 385.359Z" fill="#1A88CA"/>
<path d="M111.449 385.359H68.3364C66.5294 385.359 65.0645 386.824 65.0645 388.632V388.727C65.0645 390.535 66.5294 392 68.3364 392H111.449C113.257 392 114.721 390.535 114.721 388.727V388.632C114.721 386.824 113.257 385.359 111.449 385.359Z" fill="black" fill-opacity="0.3"/>
<path d="M204.622 372.736H110.633L112.343 366.545L115.682 354.45L117.707 347.129L120.687 336.332L126.434 315.522L129.417 304.725L150.379 228.828H164.879L172.559 256.644L185.837 304.725L188.82 315.522L194.568 336.332L197.551 347.129L202.911 366.545L204.622 372.736Z" fill="#F15F22"/>
<g style="mix-blend-mode:multiply" opacity="0.1">
<path d="M204.622 372.736H110.633L112.343 366.542L115.682 354.45C181.175 350.58 172.559 256.644 172.559 256.644L202.911 366.545L204.622 372.739V372.736Z" fill="black"/>
</g>
<g style="mix-blend-mode:multiply">
<path d="M223.854 372.736H91.4043V385.333H223.854V372.736Z" fill="#F15F22"/>
</g>
<path d="M188.82 315.522H126.434L129.417 304.725H185.837L188.82 315.522Z" fill="white"/>
<path d="M197.551 347.129H117.707L120.687 336.332H194.568L197.551 347.129Z" fill="white"/>
</svg>
