<svg width="635" height="391" viewBox="0 0 635 391" fill="none" xmlns="http://www.w3.org/2000/svg">
<g clip-path="url(#clip0_3800_21818)">
<path opacity="0.1" d="M634.999 251.13C635.01 261.724 633.73 272.279 631.187 282.562C630.332 286.027 629.338 289.42 628.206 292.741C626.821 296.84 625.215 300.862 623.397 304.788C622.48 306.774 621.512 308.72 620.491 310.627C620.508 321.491 618.274 332.239 613.93 342.194C606.078 360.056 592.076 374.498 574.476 382.888C563.472 388.144 551.447 390.908 539.255 390.984H120.544C101.914 391.024 83.6067 386.124 67.4822 376.784L67.2342 376.644C64.9375 375.298 62.6983 373.873 60.5166 372.369C55.6079 368.975 50.9961 365.169 46.731 360.992C40.9582 355.345 35.8713 349.035 31.576 342.194C21.4877 326.159 16.1435 307.59 16.1622 288.64C5.94569 270.694 -0.0117188 249.198 -0.0117188 226.099C-0.0117188 196.954 9.45543 170.369 25.0094 150.243C28.2521 146.038 31.8041 142.082 35.6357 138.407C39.4162 134.771 43.4797 131.441 47.7877 128.45C51.2344 126.054 54.8365 123.89 58.5703 121.973C60.1284 121.18 61.6919 120.43 63.2823 119.733C64.6787 119.113 66.0912 118.535 67.5199 117.99C69.2344 117.339 70.9704 116.74 72.7279 116.193C74.4855 115.646 76.2197 115.168 77.9305 114.757C80.4465 114.142 83.0056 113.642 85.6078 113.257C87.7643 112.939 89.9208 112.717 92.0774 112.55C93.7918 112.421 95.5224 112.35 97.2638 112.329H98.2073C100.127 112.329 102.035 112.404 103.927 112.534C104.127 112.134 104.343 111.73 104.542 111.336C105.297 109.895 106.079 108.459 106.866 107.056C106.864 107.043 106.864 107.031 106.866 107.018C107.001 106.77 107.135 106.527 107.275 106.289C107.912 105.14 108.575 104.001 109.254 102.873C109.567 102.333 109.874 101.826 110.192 101.319C110.259 101.193 110.333 101.07 110.413 100.952C110.737 100.412 111.066 99.8724 111.4 99.3327C113.064 96.6701 114.795 94.0543 116.592 91.4854L117.05 90.8269C117.33 90.4275 117.589 90.0389 117.902 89.6396C118.646 88.5979 119.411 87.5509 120.182 86.5255C120.721 85.7915 121.261 85.0629 121.843 84.3666C123.245 82.5676 124.682 80.7686 126.156 78.9696C127.629 77.1706 129.161 75.395 130.749 73.6427C130.965 73.3998 131.181 73.1624 131.407 72.9249L133.709 70.4099C133.822 70.2911 133.919 70.1832 134.027 70.0753C134.302 69.7784 134.566 69.4816 134.863 69.1955C136.097 67.8841 137.364 66.5996 138.637 65.3205C145.112 58.8642 152.01 52.8475 159.286 47.3105C159.571 47.0838 159.862 46.8679 160.148 46.6521C161.518 45.6212 162.908 44.6012 164.299 43.5973C171.95 38.1029 179.948 33.1092 188.242 28.6475C188.814 28.3183 189.396 28.0107 189.984 27.7084C197.42 23.7703 205.067 20.246 212.891 17.1518C217.156 15.4625 221.517 13.8758 225.906 12.424C228.828 11.4633 231.761 10.5512 234.732 9.69308C239.375 8.35461 244.051 7.15466 248.76 6.09324C262.631 2.97745 276.743 1.05271 290.941 0.339988C295.254 0.120508 299.616 0.00717186 304.026 -2.42088e-05C325.306 -0.0282259 346.502 2.6559 367.105 7.98761C367.318 8.30986 367.609 8.57257 367.951 8.75101C368.294 8.92946 368.676 9.01777 369.062 9.00765H370.873C371.66 9.22353 372.442 9.43941 373.229 9.66609C377.625 10.9326 381.958 12.316 386.228 13.8164L387.306 14.205C397.845 17.9565 408.099 22.4658 417.988 27.6976C426.902 32.4025 435.485 37.7112 443.677 43.5865C444.939 44.4932 446.183 45.4072 447.408 46.3282C448.896 45.3748 450.409 44.4609 451.948 43.5865C457.888 40.1996 464.198 37.5068 470.753 35.5611C484.456 31.5016 498.956 30.9339 512.934 33.9096C530.86 37.7146 547.088 47.1594 560.195 60.5926C565.531 66.0889 570.281 72.1266 574.368 78.608C574.665 79.0721 574.961 79.5417 575.247 80.0166C578.76 85.7531 581.779 91.7781 584.272 98.0266C584.364 98.2587 584.456 98.4745 584.536 98.7012C586.838 104.552 588.694 110.569 590.089 116.7C590.154 117.013 590.23 117.321 590.294 117.634C591.599 123.568 592.486 129.586 592.947 135.644C592.947 135.86 592.947 136.081 592.99 136.308C593.216 139.442 593.331 142.608 593.335 145.807C593.335 148.667 593.238 151.506 593.06 154.323C593.06 154.631 593.017 154.949 592.99 155.268C592.941 156.083 592.871 156.887 592.801 157.707C596.919 161.032 600.773 164.672 604.328 168.593C605.899 170.309 607.419 172.09 608.889 173.936C613.367 179.554 617.302 185.584 620.642 191.946C629.759 209.173 634.999 229.439 634.999 251.13Z" fill="#949CA1"/>
<path opacity="0.1" d="M574.077 380.891C574.077 384.577 561.392 388.032 539.255 391H120.544C101.914 391.04 83.6069 386.14 67.4824 376.8L67.2344 376.66C73.5961 374.339 85.0796 372.175 100.709 370.221L101.41 370.135C108.419 369.277 116.252 368.462 124.814 367.69C125.029 367.69 125.25 367.658 125.466 367.631C132.259 367.026 139.485 366.46 147.144 365.931C147.387 365.931 147.624 365.887 147.867 365.877C150.821 365.664 153.837 365.463 156.914 365.272L158.1 365.197C180.501 363.804 205.964 362.692 233.578 361.958H233.61C237.478 361.85 241.386 361.755 245.337 361.672C249.729 361.568 254.175 361.476 258.675 361.397C262.109 361.322 265.586 361.268 269.074 361.214H269.155C284.893 360.976 301.153 360.857 317.78 360.857C358.894 360.857 397.754 361.608 432.189 362.957H432.286C437.58 363.162 442.777 363.389 447.845 363.621L452.158 363.826C457.877 364.099 463.448 364.392 468.871 364.706C532.651 368.338 574.077 374.237 574.077 380.891Z" fill="#1B5BA9"/>
<g opacity="0.2">
<path opacity="0.2" d="M366.761 358.38C366.744 358.962 366.678 359.542 366.562 360.113C362.81 359.516 359.036 358.976 355.24 358.494C355.24 358.343 355.24 358.186 355.24 358.03C355.275 356.411 355.741 354.831 356.588 353.453C357.699 351.693 359.386 350.592 361.246 350.652C363.106 350.711 364.718 351.915 365.716 353.733C366.47 355.162 366.831 356.766 366.761 358.38Z" fill="#002B5C"/>
<path opacity="0.2" d="M367.071 349.158C367.203 344.984 364.728 341.518 361.544 341.418C358.359 341.317 355.671 344.619 355.539 348.793C355.408 352.967 357.882 356.432 361.067 356.533C364.251 356.633 366.939 353.332 367.071 349.158Z" fill="#002B5C"/>
<path opacity="0.2" d="M367.364 339.918C367.496 335.744 365.021 332.278 361.837 332.178C358.652 332.077 355.964 335.379 355.832 339.553C355.701 343.727 358.175 347.192 361.36 347.293C364.544 347.393 367.232 344.092 367.364 339.918Z" fill="#002B5C"/>
<path opacity="0.2" d="M367.653 330.678C367.785 326.504 365.31 323.039 362.126 322.938C358.941 322.837 356.253 326.139 356.121 330.313C355.99 334.487 358.464 337.952 361.649 338.053C364.833 338.153 367.521 334.852 367.653 330.678Z" fill="#002B5C"/>
<path opacity="0.2" d="M367.942 321.438C368.074 317.264 365.599 313.798 362.415 313.698C359.23 313.597 356.542 316.899 356.41 321.073C356.279 325.247 358.753 328.712 361.938 328.813C365.122 328.914 367.81 325.612 367.942 321.438Z" fill="#002B5C"/>
<path opacity="0.2" d="M342.554 257.326C341.795 256.297 341.11 255.215 340.505 254.088L355.741 252.075L339.341 251.681C337.877 248.205 337.137 244.468 337.166 240.696C337.195 236.925 337.991 233.199 339.508 229.747L361.138 241.863L341.325 226.298C343.323 223.062 345.967 220.273 349.091 218.106C352.215 215.938 355.751 214.439 359.48 213.702C363.209 212.964 367.049 213.004 370.762 213.819C374.474 214.634 377.979 216.206 381.057 218.438C384.135 220.67 386.721 223.513 388.652 226.79C390.583 230.067 391.818 233.708 392.281 237.484C392.743 241.261 392.423 245.092 391.34 248.739C390.257 252.386 388.435 255.77 385.986 258.68C387.167 260.281 388.171 262.006 388.979 263.824L368.982 273.431L390.186 267.046C391.522 271.457 391.737 276.131 390.812 280.646C389.888 285.161 387.853 289.374 384.892 292.903C387.97 297.084 389.811 302.049 390.204 307.228C390.597 312.407 389.526 317.593 387.114 322.192C384.701 326.79 381.044 330.616 376.562 333.233C372.079 335.849 366.952 337.15 361.766 336.986C356.58 336.822 351.544 335.201 347.235 332.307C342.926 329.413 339.517 325.364 337.399 320.622C335.281 315.881 334.538 310.638 335.256 305.494C335.974 300.349 338.124 295.511 341.459 291.532C337.782 286.535 335.888 280.446 336.084 274.242C336.279 268.038 338.552 262.081 342.538 257.326H342.554Z" fill="#1B5BA9"/>
<path opacity="0.1" d="M391.362 275.989C391.173 282.196 388.893 288.157 384.892 292.903C387.97 297.084 389.811 302.049 390.204 307.228C390.597 312.407 389.526 317.593 387.114 322.192C384.701 326.79 381.044 330.616 376.562 333.233C372.079 335.849 366.952 337.15 361.766 336.986C356.58 336.822 351.544 335.201 347.235 332.307C342.926 329.413 339.517 325.364 337.399 320.622C335.281 315.881 334.538 310.638 335.256 305.494C335.974 300.349 338.124 295.511 341.459 291.532C337.917 286.713 391.459 272.886 391.362 275.989Z" fill="black"/>
</g>
<g opacity="0.2">
<path opacity="0.2" d="M284.812 358.38C284.795 358.962 284.728 359.542 284.613 360.113C280.86 359.516 277.086 358.976 273.291 358.494C273.291 358.343 273.291 358.186 273.291 358.03C273.326 356.411 273.791 354.831 274.639 353.453C275.749 351.693 277.437 350.592 279.297 350.652C281.157 350.711 282.769 351.915 283.766 353.733C284.521 355.162 284.882 356.766 284.812 358.38Z" fill="#002B5C"/>
<path opacity="0.2" d="M285.116 349.16C285.248 344.986 282.773 341.521 279.589 341.42C276.404 341.319 273.716 344.621 273.584 348.795C273.453 352.969 275.927 356.434 279.112 356.535C282.296 356.636 284.984 353.334 285.116 349.16Z" fill="#002B5C"/>
<path opacity="0.2" d="M285.409 339.92C285.541 335.746 283.066 332.281 279.882 332.18C276.697 332.079 274.009 335.381 273.877 339.555C273.745 343.729 276.22 347.194 279.405 347.295C282.589 347.396 285.277 344.094 285.409 339.92Z" fill="#002B5C"/>
<path opacity="0.2" d="M285.698 330.68C285.83 326.506 283.355 323.041 280.171 322.94C276.986 322.839 274.298 326.141 274.166 330.315C274.035 334.489 276.509 337.954 279.694 338.055C282.878 338.156 285.566 334.854 285.698 330.68Z" fill="#002B5C"/>
<path opacity="0.2" d="M285.987 321.44C286.119 317.266 283.644 313.801 280.46 313.7C277.275 313.599 274.587 316.901 274.455 321.075C274.324 325.249 276.798 328.714 279.983 328.815C283.167 328.916 285.855 325.614 285.987 321.44Z" fill="#002B5C"/>
<path opacity="0.2" d="M260.605 257.326C259.845 256.297 259.161 255.215 258.556 254.088L273.792 252.075L257.391 251.681C255.928 248.205 255.188 244.468 255.217 240.696C255.245 236.925 256.042 233.199 257.559 229.747L279.189 241.863L259.375 226.298C261.374 223.062 264.018 220.273 267.142 218.106C270.266 215.938 273.802 214.439 277.531 213.702C281.259 212.964 285.1 213.004 288.812 213.819C292.525 214.634 296.03 216.206 299.108 218.438C302.186 220.67 304.771 223.513 306.702 226.79C308.634 230.067 309.869 233.708 310.332 237.484C310.794 241.261 310.474 245.092 309.391 248.739C308.308 252.386 306.485 255.77 304.037 258.68C305.218 260.281 306.221 262.006 307.029 263.824L287.033 273.431L308.237 267.046C309.572 271.457 309.787 276.131 308.863 280.646C307.939 285.161 305.904 289.374 302.943 292.903C306.021 297.084 307.862 302.049 308.255 307.228C308.648 312.407 307.577 317.593 305.164 322.192C302.752 326.79 299.095 330.616 294.613 333.233C290.13 335.849 285.003 337.15 279.816 336.986C274.63 336.822 269.595 335.201 265.286 332.307C260.977 329.413 257.568 325.364 255.45 320.622C253.332 315.881 252.589 310.638 253.307 305.494C254.025 300.349 256.175 295.511 259.51 291.532C255.832 286.535 253.939 280.446 254.135 274.242C254.33 268.038 256.603 262.081 260.589 257.326H260.605Z" fill="#1B5BA9"/>
<path opacity="0.1" d="M309.412 275.989C309.224 282.196 306.944 288.157 302.943 292.903C306.021 297.084 307.862 302.049 308.255 307.228C308.648 312.407 307.577 317.593 305.164 322.192C302.752 326.79 299.095 330.616 294.613 333.233C290.13 335.849 285.003 337.15 279.816 336.986C274.63 336.822 269.595 335.201 265.286 332.307C260.977 329.413 257.568 325.364 255.45 320.622C253.332 315.881 252.589 310.638 253.307 305.494C254.025 300.349 256.175 295.511 259.51 291.532C255.968 286.713 309.509 272.886 309.412 275.989Z" fill="black"/>
</g>
<g opacity="0.2">
<path opacity="0.2" d="M508.66 364.284C508.619 365.387 508.488 366.485 508.267 367.566C501.043 366.411 493.766 365.378 486.438 364.468C486.438 364.177 486.438 363.88 486.438 363.577C486.506 360.461 487.403 357.418 489.036 354.764C491.193 351.38 494.427 349.259 498.002 349.367C501.576 349.475 504.687 351.801 506.628 355.304C508.092 358.063 508.793 361.163 508.66 364.284Z" fill="#002B5C"/>
<path opacity="0.2" d="M509.246 346.516C509.499 338.478 504.733 331.804 498.599 331.61C492.465 331.416 487.287 337.775 487.034 345.813C486.78 353.851 491.547 360.524 497.68 360.718C503.814 360.912 508.992 354.554 509.246 346.516Z" fill="#002B5C"/>
<path opacity="0.2" d="M509.806 328.727C510.06 320.689 505.293 314.015 499.16 313.821C493.026 313.627 487.848 319.986 487.594 328.024C487.34 336.062 492.107 342.735 498.241 342.929C504.374 343.123 509.552 336.765 509.806 328.727Z" fill="#002B5C"/>
<path opacity="0.2" d="M510.373 310.938C510.626 302.9 505.86 296.226 499.726 296.032C493.592 295.838 488.414 302.197 488.161 310.235C487.907 318.273 492.673 324.946 498.807 325.14C504.941 325.334 510.119 318.976 510.373 310.938Z" fill="#002B5C"/>
<path opacity="0.2" d="M510.3 292.339C510.541 284.297 505.762 277.629 499.625 277.444C493.488 277.26 488.318 283.63 488.077 291.672C487.836 299.714 492.615 306.383 498.752 306.567C504.889 306.751 510.059 300.381 510.3 292.339Z" fill="#002B5C"/>
<path opacity="0.2" d="M462.052 169.743C460.597 167.761 459.28 165.682 458.111 163.52L487.44 159.645L455.873 158.884C453.054 152.194 451.627 144.999 451.681 137.738C451.735 130.478 453.268 123.304 456.186 116.657L497.834 139.978L459.696 110.013C463.552 103.798 468.646 98.4445 474.659 94.2863C480.673 90.1281 487.478 87.2543 494.649 85.8441C501.821 84.4338 509.206 84.5173 516.344 86.0894C523.482 87.6615 530.22 90.6885 536.138 94.9817C542.056 99.2749 547.028 104.742 550.743 111.043C554.458 117.344 556.837 124.343 557.731 131.605C558.625 138.866 558.016 146.234 555.941 153.25C553.866 160.265 550.37 166.778 545.671 172.382C547.942 175.466 549.875 178.786 551.435 182.285L512.935 200.792L553.753 188.486C556.325 196.968 556.744 205.957 554.971 214.641C553.199 223.325 549.291 231.429 543.601 238.22C549.526 246.27 553.069 255.826 553.825 265.797C554.58 275.767 552.518 285.749 547.873 294.602C543.229 303.454 536.189 310.819 527.56 315.856C518.931 320.892 509.061 323.395 499.077 323.08C489.094 322.765 479.4 319.644 471.105 314.074C462.81 308.503 456.248 300.709 452.17 291.581C448.092 282.454 446.661 272.361 448.043 262.458C449.424 252.555 453.562 243.241 459.982 235.581C452.905 225.962 449.262 214.241 449.638 202.301C450.013 190.36 454.385 178.892 462.052 169.737V169.743Z" fill="#1B5BA9"/>
<path opacity="0.1" d="M556.023 205.665C555.669 217.608 551.3 229.082 543.623 238.231C549.548 246.281 553.091 255.837 553.846 265.808C554.602 275.778 552.54 285.76 547.895 294.612C543.25 303.465 536.211 310.83 527.582 315.866C518.953 320.902 509.082 323.406 499.099 323.091C489.115 322.776 479.422 319.655 471.127 314.084C462.832 308.514 456.27 300.72 452.191 291.592C448.113 282.464 446.683 272.372 448.064 262.469C449.446 252.566 453.583 243.252 460.003 235.592C453.135 226.304 556.211 199.691 556.023 205.665Z" fill="black"/>
</g>
<path d="M85.0859 365.235L90.7414 365.218H98.7152L108.797 201.267L208.639 34.4818L204.299 29.8188V18.01L96.3214 197.403L85.0859 365.235Z" fill="#949CA1"/>
<path opacity="0.1" d="M91.3457 365.218H98.7156L108.797 201.267L208.639 34.4817L204.299 29.8186L101.314 198.768L91.3457 365.218Z" fill="black"/>
<path d="M68.4219 366.6L327.124 386.418L327.345 386.434L577.713 371.02L577.901 371.009V360.426L302.028 355.358L71.8669 355.137H70.1848L70.0015 356.324L68.4219 366.6Z" fill="#949CA1"/>
<path opacity="0.1" d="M68.4219 366.6L327.124 386.418L327.345 386.434L577.713 371.02L577.901 370.815V360.647H577.68L327.124 369.023L71.8669 355.137H71.8292L71.3763 355.434L70.0015 356.324L68.4219 366.6Z" fill="black"/>
<path opacity="0.1" d="M68.4219 366.6L327.124 386.418V369.023L71.3763 355.433L70.0015 356.324L68.4219 366.6Z" fill="black"/>
<path d="M204.266 29.5974L318.319 152.143L314.793 367.701L324.481 368.872L324.643 368.894H334.331L335.49 161.399L549.056 232.812L552.658 359.967L560.454 360.841L563.095 361.138L556.982 223.994L333.727 145.531L211.312 18.134H204.266V29.5974Z" fill="#949CA1"/>
<path opacity="0.1" d="M334.611 157.432L335.49 161.399L549.056 232.812L552.658 359.967L560.454 360.841L554.34 230.168L334.611 157.432Z" fill="black"/>
<path opacity="0.1" d="M204.266 29.5974L318.319 152.143L314.793 367.701L324.481 368.872L327.123 145.089L204.266 18.134V29.5974Z" fill="black"/>
<path d="M335.027 243.941L413.358 259.382L413.385 259.387L550.578 286.443L556.859 283.922L556.837 283.48L556.427 274.71L335.108 229.941L335.027 243.941Z" fill="#949CA1"/>
<path opacity="0.1" d="M413.385 259.387L550.578 286.443L556.858 283.922L556.837 283.48L413.385 259.387Z" fill="black"/>
<path d="M418.631 189.199L420.75 305.959L421.844 365.861L431.489 365.537L437.56 365.332L435.673 190.888L431.489 189.496L430.573 189.199H418.631Z" fill="#949CA1"/>
<path opacity="0.1" d="M418.717 189.172V189.199L420.749 305.959L421.844 365.86L431.489 365.537V189.172H418.717Z" fill="black"/>
<path d="M267.549 219.018C268.115 219.325 268.656 219.677 269.167 220.07C269.771 220.599 270.313 221.195 270.784 221.846C273.097 224.841 275.232 228.322 275.005 232.1C275.01 232.65 274.907 233.195 274.7 233.704C274.494 234.214 274.189 234.677 273.803 235.068C272.849 235.883 271.48 235.921 270.229 235.921C268.87 235.921 267.441 235.921 266.266 235.22C265.091 234.518 264.11 233.152 262.719 233.185C262.522 233.217 262.322 233.217 262.126 233.185C261.646 233.028 261.549 232.397 261.236 231.997C260.697 231.28 259.559 231.458 258.713 231.771C257.866 232.084 256.928 232.553 256.093 232.192C255.608 231.936 255.211 231.539 254.955 231.053C252.955 227.815 252.529 223.923 252.152 220.162C251.92 217.873 250.151 210.069 255.031 211.845C257.187 212.622 259.204 214.176 261.166 215.315L267.549 219.018Z" fill="#002B5C"/>
<path d="M262.731 219.789C263.166 220.103 263.695 220.262 264.231 220.24C264.767 220.219 265.281 220.018 265.69 219.671C266.493 218.944 267.005 217.951 267.13 216.875C267.669 216.708 267.944 217.415 268.289 217.846C268.893 218.58 270.122 218.57 270.672 219.352C271.055 219.892 270.968 220.642 271.238 221.252C271.588 222.04 272.456 222.45 273.05 223.087C273.61 223.783 274.014 224.591 274.236 225.456L275.12 228.112C275.543 229.216 275.815 230.372 275.928 231.55C275.984 232.138 275.922 232.732 275.747 233.296C275.571 233.86 275.284 234.384 274.904 234.836C273.718 236.115 271.772 236.25 270.052 236.213C269.478 236.225 268.904 236.158 268.348 236.013C266.823 235.538 265.847 234 265.442 232.451C265.038 230.902 265.081 229.277 264.844 227.691C264.588 226.132 264.135 224.612 263.496 223.168C263.022 222.045 261.717 220.372 261.739 219.18C262.127 219.18 262.407 219.536 262.731 219.789Z" fill="#002B5C"/>
<path d="M264.665 214.322C264.413 213.556 264.266 212.759 264.228 211.953C264.228 210.334 264.967 208.812 265.711 207.365L259.548 208.202C258.804 208.305 257.974 208.456 257.554 209.076C257.394 209.384 257.311 209.725 257.311 210.072C257.311 210.419 257.394 210.76 257.554 211.068C257.863 211.684 258.108 212.329 258.287 212.995C258.301 213.577 258.368 214.157 258.486 214.727C258.678 215.146 258.947 215.525 259.279 215.844C261.042 217.798 262.363 220.103 263.678 222.385C263.64 222.321 267.393 219.412 267.242 218.462C267.156 217.922 266.072 217.274 265.727 216.756C265.25 216.004 264.892 215.183 264.665 214.322Z" fill="#BE6F72"/>
<path d="M317.499 193.236V198.552L226.564 216.308L221.847 219.169H205.57V216.173L294.915 194.564L317.499 193.236Z" fill="#949CA1"/>
<path opacity="0.1" d="M317.499 198.552L226.564 216.308L221.847 219.169H205.57L295.578 199.885L317.499 198.552Z" fill="black"/>
<path d="M244.491 344.148C243.477 342.92 242.079 342.071 240.522 341.74C238.966 341.409 237.343 341.615 235.918 342.324C235.613 342.468 235.344 342.678 235.131 342.939C234.592 343.695 234.937 344.737 234.986 345.67C235.11 347.948 233.298 349.799 231.67 351.391C230.797 352.244 229.907 353.156 229.513 354.316C229.12 355.477 229.411 356.95 230.468 357.555C230.929 357.786 231.431 357.925 231.945 357.965C233.668 358.301 235.435 358.35 237.175 358.11C238.894 357.781 240.582 356.804 241.326 355.218C241.469 354.787 241.707 354.395 242.021 354.068C242.97 353.318 244.426 354.198 245.504 353.663C246.394 353.221 246.431 352.524 246.442 351.607C246.475 349.07 246.097 346.199 244.491 344.148Z" fill="#1B5BA9"/>
<path d="M257.429 344.051C258.092 345.8 258.184 347.705 258.27 349.572C258.319 350.652 258.351 351.806 257.769 352.719C257.187 353.631 256.049 354.111 254.96 354.338C252.712 354.802 250.108 354.365 248.658 352.578C247.547 351.213 247.315 349.34 247.52 347.57C247.693 346.118 248.059 344.418 247.019 343.387C246.749 343.112 246.399 342.918 246.151 342.621C245.612 341.962 245.698 340.969 245.989 340.16C246.368 339.385 246.652 338.568 246.835 337.726C246.879 337.326 254.135 338.006 254.804 338.336C255.715 338.783 255.575 339.534 255.85 340.44C256.232 341.703 256.966 342.842 257.429 344.051Z" fill="#1B5BA9"/>
<path d="M258.762 266.517C260.185 267.44 260.735 269.253 260.956 270.937C261.566 275.552 260.498 280.215 260.417 284.873C260.342 291.398 262.229 298.041 260.617 304.361C259.652 308.139 260.471 312.457 259.565 316.273C259.296 317.406 258.8 318.475 258.541 319.608C258.002 322.064 258.568 324.633 259.328 327.034C259.571 327.682 259.725 328.359 259.786 329.047C259.75 330.108 259.481 331.147 258.999 332.091L255.765 339.75C255.403 340.608 253.98 340.748 253.069 340.862C251.354 341.067 249.441 341.212 248.077 340.149C246.713 339.086 246.384 337.305 246.173 335.643C245.77 332.451 245.59 329.236 245.634 326.02C245.694 325.18 245.619 324.337 245.413 323.521C245.117 322.598 244.464 321.799 244.286 320.822C244.06 319.559 244.702 318.318 244.939 317.044C245.101 315.881 245.083 314.699 244.885 313.542C244.675 311.815 244.432 310.088 244.157 308.371C243.769 305.97 244.324 303.6 244.696 301.193C245.047 298.932 244.599 296.627 244.157 294.382C244.195 296.204 243.968 298.022 243.483 299.779C243.197 300.637 242.788 301.458 242.54 302.332C241.434 306.256 243.79 310.374 243.456 314.438C243.3 316.337 242.556 318.216 242.766 320.088C242.912 321.459 243.548 322.717 243.985 324.023C244.421 325.329 244.648 326.824 243.985 328.044C242.232 331.357 243.542 335.864 245.111 339.264C245.43 339.867 245.707 340.491 245.942 341.131C246.405 342.664 246.017 344.31 246.141 345.908C245.69 345.982 245.227 345.952 244.789 345.82C244.351 345.688 243.948 345.458 243.613 345.147C243.375 344.899 243.181 344.607 242.949 344.348C242.302 343.73 241.535 343.251 240.696 342.939C240.203 342.663 239.642 342.534 239.078 342.567C238.486 342.733 237.953 343.064 237.542 343.522C237.009 343.992 236.443 344.423 235.849 344.812C235.596 345.007 235.3 345.138 234.986 345.195C234.829 345.22 234.667 345.194 234.525 345.121C234.383 345.049 234.267 344.933 234.194 344.791C234.16 344.701 234.14 344.606 234.135 344.51C233.934 342.88 233.828 341.241 233.816 339.599C233.816 336.776 230.442 334.833 230.016 332.043C229.676 329.792 230.307 327.498 230.096 325.232C229.994 324.066 229.671 322.922 229.692 321.756C229.692 321 229.865 320.261 229.924 319.511C229.973 318.678 229.961 317.843 229.886 317.012L229.719 314.405C229.557 311.831 229.379 309.202 228.366 306.849C227.164 304.102 226.452 301.164 226.263 298.171C226.155 296.282 226.226 294.393 226.01 292.499C225.816 290.788 225.384 289.088 225.508 287.371C225.611 286.044 226.048 284.759 226.15 283.432C226.36 280.879 225.39 278.396 224.63 275.951C223.87 273.506 223.309 270.797 224.306 268.439C224.449 268.051 224.686 267.706 224.996 267.435C225.379 267.181 225.814 267.019 226.269 266.96C235.519 265.015 245 264.409 254.422 265.163C255.958 265.25 257.449 265.715 258.762 266.517Z" fill="#002B5C"/>
<path d="M228.154 209.195C232.924 209.195 236.791 205.324 236.791 200.549C236.791 195.774 232.924 191.903 228.154 191.903C223.384 191.903 219.518 195.774 219.518 200.549C219.518 205.324 223.384 209.195 228.154 209.195Z" fill="#BE6F72"/>
<path d="M226.484 211.348C226.608 211.843 226.608 212.36 226.484 212.854C226.348 213.199 226.157 213.52 225.918 213.804C225.082 214.884 224.157 215.891 223.152 216.816C223.664 217.96 224.585 218.871 225.735 219.368C226.876 219.855 228.073 220.197 229.298 220.388C229.91 220.549 230.547 220.593 231.175 220.518C231.753 220.372 232.301 220.124 232.792 219.784L237.59 216.907C238.314 216.515 238.985 216.03 239.585 215.466C240.465 214.561 240.963 213.351 240.976 212.088C240.998 211.861 240.937 211.635 240.803 211.451C240.62 211.291 240.389 211.194 240.146 211.176C238.458 210.803 237.127 209.432 236.372 207.878C235.69 206.285 235.248 204.599 235.062 202.875L229.945 205.574C229.185 205.978 228.43 206.383 227.643 206.734C227.142 206.961 226.128 207.149 225.773 207.608C225.093 208.456 226.306 210.328 226.484 211.348Z" fill="#BE6F72"/>
<path d="M223.185 215.245C222.457 215.843 221.888 216.613 221.53 217.485C221.196 218.564 221.53 219.703 221.832 220.772C223.247 225.326 224.328 229.978 225.067 234.691C225.519 237.929 225.687 241.216 225.908 244.492C226.361 251.173 227.018 261.827 227.897 268.465C231.132 268.611 234.286 267.667 237.494 267.321C243.489 266.684 249.662 268.142 255.533 266.782C254.11 261.152 252.686 251.54 251.263 245.917C250.633 243.701 250.197 241.435 249.958 239.143C249.834 237.497 249.91 235.846 249.931 234.189C249.98 230.951 249.802 227.712 249.624 224.474C249.419 220.696 249.214 216.918 248.319 213.221C248.257 212.75 248.036 212.314 247.694 211.985C247.155 211.591 246.454 211.732 245.812 211.818C243.848 212.068 241.86 211.596 240.216 210.49C239.505 210.005 238.55 209.411 237.887 209.951C237.604 210.276 237.417 210.674 237.348 211.1C237.055 211.864 236.602 212.556 236.02 213.13C235.438 213.704 234.74 214.148 233.973 214.43C232.437 214.987 230.828 215.318 229.196 215.412C228.697 215.52 228.177 215.461 227.714 215.245C226.948 214.776 226.894 213.086 225.929 212.973C225.083 212.876 223.757 214.7 223.185 215.245Z" fill="#002B5C"/>
<path d="M235.941 228.425C233.951 226.52 233.078 223.756 231.628 221.409C230.64 219.83 229.378 218.441 227.902 217.307C227.16 216.816 226.48 216.238 225.875 215.585C225.363 214.954 224.975 214.112 224.198 213.869C223.878 213.799 223.545 213.808 223.228 213.896C222.912 213.983 222.621 214.146 222.382 214.371C221.906 214.824 221.456 215.304 221.034 215.806C218.748 218.176 214.731 218.505 212.92 221.247C212.431 221.828 212.099 222.525 211.955 223.271C211.433 227.261 212.464 231.299 214.834 234.55C215.293 235.304 215.997 235.876 216.828 236.17C216.716 237.176 216.849 238.195 217.217 239.138C218.215 242.554 219.441 245.898 220.888 249.149C220.542 250.421 220.301 251.719 220.166 253.03C219.788 256.328 220.139 259.674 219.783 262.977C219.492 265.675 218.705 268.304 218.678 271.007C218.678 271.439 218.715 271.952 219.087 272.173C219.285 272.275 219.507 272.322 219.729 272.308L226.36 272.508C230.21 272.621 234.097 272.735 237.887 272.022C238.392 271.947 238.881 271.793 239.337 271.563C240.62 270.846 241.046 269.226 241.251 267.785C241.519 265.916 241.625 264.028 241.569 262.14C242.373 264.682 243.327 267.311 245.753 268.412C247.036 268.994 248.502 268.951 249.91 268.913C252.942 268.778 255.965 268.466 258.962 267.98C259.146 268.003 259.334 267.982 259.509 267.919C259.684 267.857 259.842 267.754 259.971 267.619C260.099 267.484 260.194 267.321 260.248 267.143C260.303 266.965 260.314 266.776 260.282 266.593L260.315 263.646C260.379 257.661 258.897 251.94 258.32 245.981C258.137 244.103 258.153 242.203 257.695 240.363C257.506 239.591 257.231 238.836 257.064 238.058C256.92 237.298 256.83 236.528 256.794 235.754L256.374 229.817C256.174 227.07 255.889 224.42 255.678 221.678C255.563 219.009 255.176 216.358 254.525 213.766C254.055 212.147 253.08 210.312 251.392 210.113C250.492 210.01 249.618 210.404 248.761 210.679C246.654 211.343 244.393 211.334 242.292 210.652C241.642 210.396 240.966 210.215 240.275 210.113C239.928 210.065 239.574 210.111 239.25 210.246C238.926 210.381 238.643 210.599 238.431 210.879C238.222 211.301 238.124 211.769 238.146 212.239C237.892 217.631 237.423 223.184 235.941 228.425Z" fill="#1B5BA9"/>
<path d="M227.266 228.587C224.781 225.964 222.23 223.292 219.028 221.624C217.766 220.966 216.332 220.469 214.936 220.718C213.54 220.966 212.24 222.18 212.305 223.6C212.348 224.479 212.882 225.257 213.049 226.12C213.243 227.092 212.963 228.128 213.265 229.067C213.51 229.686 213.877 230.249 214.343 230.724L218.16 235.252C219.777 237.141 221.395 239.057 223.476 240.363C225.557 241.669 228.253 242.279 230.538 241.351C232.165 240.594 233.517 239.351 234.409 237.794C235.358 236.283 236.027 234.631 236.916 233.071C238.301 230.579 240.128 228.361 242.308 226.525C241.186 226.233 239.779 225.823 239.073 224.906C238.872 224.614 238.7 224.303 238.561 223.977L237.687 222.089C237.39 222.073 237.093 222.119 236.815 222.224C236.537 222.329 236.283 222.491 236.07 222.698C235.695 223.132 235.294 223.541 234.868 223.924C234.108 224.496 233.078 224.652 232.388 225.305C232.121 225.586 231.879 225.889 231.665 226.212C231.143 226.899 230.481 227.466 229.722 227.875C228.963 228.285 228.126 228.527 227.266 228.587Z" fill="#002B5C"/>
<path d="M242.506 217.301C244.377 213.885 244.29 209.789 244.824 205.93C244.882 204.908 245.24 203.926 245.854 203.107C246.932 201.887 248.835 201.871 250.463 202.028C250.943 202.082 251.542 202.308 251.515 202.789C251.477 202.961 251.393 203.119 251.272 203.247C249.694 205.286 248.766 207.754 248.609 210.328C249.455 210.917 250.765 209.708 251.579 210.328C252.119 210.782 251.871 211.678 251.547 212.325C250.796 213.826 250.021 215.315 249.223 216.794C248.587 218.097 247.756 219.297 246.76 220.351C246.075 221.009 245.272 221.527 244.576 222.175C242.959 223.691 241.983 225.834 240.312 227.313C240.17 227.466 239.979 227.564 239.772 227.588C239.56 227.573 239.359 227.483 239.206 227.334C238.371 226.655 237.679 225.816 237.168 224.868C236.532 223.691 236.629 223.346 237.632 222.515C239.508 221.031 241.336 219.439 242.506 217.301Z" fill="#BE6F72"/>
<path d="M224.138 226.266C224.462 226.466 224.86 226.692 225.216 226.525C225.362 226.437 225.485 226.317 225.578 226.174C226.194 225.351 226.708 224.456 227.109 223.508C227.178 223.374 227.216 223.227 227.222 223.076C227.222 222.731 226.915 222.477 226.629 222.278C225.098 221.301 223.452 220.518 221.728 219.946C220.305 219.406 218.817 218.937 217.307 219.072C216.74 219.11 216.186 219.262 215.68 219.52C215.173 219.778 214.723 220.136 214.358 220.572C213.28 221.959 215.086 222.38 216.218 222.882C218.838 224.075 221.674 224.766 224.138 226.266Z" fill="#1B5BA9"/>
<path opacity="0.1" d="M222.44 235.441C222.422 235.564 222.433 235.69 222.472 235.808C222.512 235.926 222.578 236.033 222.667 236.121C222.823 235.354 222.618 234.545 222.78 233.773C223.017 232.613 224.144 231.738 224.241 230.573C222.176 230.168 222.456 234.189 222.44 235.441Z" fill="black"/>
<path opacity="0.2" d="M317.5 193.236V198.552L295.579 199.885L294.916 194.564L317.5 193.236Z" fill="black"/>
<path d="M220.38 201.834C221.75 200.716 220.957 198.374 221.885 196.874C222.424 196.053 223.335 195.622 224.23 195.255C225.31 194.749 226.467 194.428 227.653 194.305C228.247 194.247 228.847 194.325 229.407 194.532C229.967 194.738 230.473 195.068 230.888 195.497C231.238 195.897 231.476 196.382 231.805 196.798C232.212 197.283 232.743 197.648 233.341 197.855C233.939 198.063 234.582 198.104 235.201 197.975C235.918 197.813 236.662 197.268 236.614 196.534C236.533 196.087 236.305 195.681 235.967 195.379L234.425 193.668C232.673 191.725 230.726 189.663 228.155 189.177C226.365 188.837 224.532 189.318 222.806 189.895C222.111 190.127 221.329 190.473 221.135 191.18C221.006 191.665 221.2 192.194 221.087 192.686C220.866 193.662 219.615 193.992 219.033 194.812C218.45 195.632 218.628 196.604 218.461 197.51C218.294 198.417 217.809 199.302 217.749 200.241C217.712 200.808 217.997 201.86 218.634 202.066C219.27 202.271 219.987 201.159 220.38 201.834Z" fill="#002B5C"/>
<path d="M236.09 195.756C235.636 193.382 234.656 191.139 233.222 189.194C231.948 187.376 230.174 185.966 228.117 185.135C227.088 184.733 225.982 184.569 224.881 184.656C223.78 184.743 222.713 185.078 221.76 185.637C220.346 186.648 219.245 188.038 218.585 189.647C217.188 192.659 216.671 196.339 218.294 199.232C218.941 198.444 220.051 198.8 221.032 198.514C222.262 198.163 223.302 197.343 224.472 196.83C228.003 195.271 232.316 196.534 236.09 195.756Z" fill="#FED253"/>
<path opacity="0.1" d="M219.12 195.589C218.996 194.618 218.915 193.49 219.605 192.799C219.639 192.756 219.683 192.723 219.733 192.7C219.782 192.678 219.836 192.667 219.891 192.669C219.939 192.685 219.983 192.71 220.021 192.744C220.059 192.777 220.09 192.818 220.112 192.863C220.51 193.493 220.849 194.158 221.125 194.85C220.723 194.757 220.303 194.787 219.919 194.936C219.534 195.085 219.203 195.347 218.969 195.686" fill="black"/>
<path opacity="0.1" d="M231.718 192.847L231.524 190.921C231.493 190.762 231.506 190.597 231.562 190.446C231.643 190.319 231.769 190.226 231.914 190.186C232.059 190.146 232.214 190.162 232.349 190.23C232.614 190.377 232.833 190.596 232.98 190.861C233.429 191.551 233.801 192.287 234.09 193.058C233.222 192.89 232.329 192.901 231.465 193.09" fill="black"/>
<path opacity="0.1" d="M236.544 271.045V275.449L232.829 275.697H213.291V271.045H236.544Z" fill="black"/>
<path d="M236.544 271.045V275.698H213.291L151.518 198.234V194.574H164.468L236.544 271.045Z" fill="#949CA1"/>
<path opacity="0.1" d="M236.544 271.045V275.698H213.291L151.518 198.234V194.574H164.468L236.544 271.045Z" fill="black"/>
<path opacity="0.1" d="M236.544 271.045V275.698H213.291L151.518 198.234V194.574L213.626 271.045H236.544Z" fill="black"/>
<path d="M159.615 348.687C159.655 348.906 159.651 349.131 159.6 349.348C159.55 349.565 159.456 349.769 159.323 349.948C159.191 350.127 159.023 350.276 158.83 350.387C158.637 350.498 158.423 350.568 158.202 350.592C156.704 351.1 155.113 351.601 154.051 352.751C152.989 353.901 152.779 356.032 154.051 356.966C154.701 357.359 155.448 357.563 156.208 357.554C158.65 357.722 161.195 357.689 163.41 356.653C164.995 355.919 166.489 354.667 168.23 354.78C169.131 354.834 170.09 355.255 170.893 354.845C171.697 354.435 171.923 353.291 171.929 352.336C171.949 350.341 171.649 348.357 171.039 346.458C170.958 346.199 167.529 345.999 167.12 345.918L162.963 345.379C162.176 345.276 160.477 344.682 159.857 345.341C159.237 345.999 159.615 347.905 159.615 348.687Z" fill="#1B5BA9"/>
<path d="M184.421 335.216C184.597 336.188 184.883 337.137 185.273 338.044C185.85 339.512 186.589 341.072 188.001 341.784C189.284 342.426 190.859 342.194 192.163 341.585C192.708 341.359 193.185 340.996 193.549 340.532C193.97 339.798 194.158 338.953 194.088 338.109C194.088 336.02 193.964 333.861 193.01 332.005C192.19 330.386 190.762 328.993 190.74 327.201L185.829 328.151C185.566 328.177 185.315 328.276 185.106 328.437C184.951 328.601 184.842 328.805 184.793 329.026C184.269 331.045 184.143 333.148 184.421 335.216Z" fill="#1B5BA9"/>
<path d="M125.768 283.944C125.563 285.682 125.649 287.544 126.555 289.044C127.461 290.545 129.369 291.538 131.019 290.939C131.103 290.917 131.183 290.879 131.252 290.826C131.322 290.773 131.38 290.707 131.423 290.631C131.467 290.449 131.442 290.256 131.353 290.091C130.625 288.146 130.685 285.992 131.52 284.09C131.628 283.842 131.86 283.55 132.113 283.647C132.219 283.701 132.305 283.788 132.356 283.896C132.617 284.348 132.748 284.863 132.733 285.385C132.657 285.858 132.643 286.339 132.69 286.815C132.793 287.279 133.289 287.717 133.72 287.517C133.845 287.44 133.952 287.339 134.037 287.219C134.121 287.1 134.18 286.964 134.211 286.821C135.413 283.34 134.868 279.535 134.318 275.892C134.323 275.808 134.309 275.724 134.278 275.647C134.247 275.569 134.199 275.499 134.138 275.442C134.076 275.385 134.003 275.342 133.924 275.316C133.844 275.29 133.76 275.282 133.677 275.293C131.132 275.039 129.741 274.429 128.286 276.798C127.035 278.795 125.768 281.542 125.768 283.944Z" fill="#1B5BA9"/>
<path d="M155.519 275.088C154.764 278.229 154.004 281.408 153.955 284.635C153.968 286.645 154.12 288.652 154.408 290.642L154.974 295.316C155.168 296.892 155.357 298.462 155.632 300.022C155.807 300.826 155.903 301.645 155.918 302.467C155.865 303.278 155.736 304.082 155.535 304.869C155.196 306.521 155.006 308.201 154.969 309.888C154.909 312.586 155.244 315.285 155.454 317.983C155.874 323.361 155.81 328.765 155.265 334.131C155.047 335.58 155.362 337.058 156.149 338.292C156.469 338.682 156.732 339.114 156.931 339.577C157.335 340.813 156.392 342.049 156.149 343.317C155.994 344.306 156.237 345.316 156.826 346.126C157.414 346.935 158.299 347.478 159.287 347.635C163.6 348.147 168.032 347.915 171.919 349.891C172.329 348.693 171.434 347.333 171.843 346.113C172.102 345.357 172.814 344.866 173.299 344.229C173.951 343.259 174.276 342.105 174.226 340.937C174.245 339.412 173.975 337.897 173.429 336.474C172.97 335.286 172.313 334.115 172.35 332.841C172.35 332.215 172.571 331.557 172.318 330.98C172.144 330.648 171.908 330.353 171.622 330.111C170.011 328.343 169.021 326.098 168.803 323.715C168.593 321.351 168.669 318.969 169.029 316.623C169.293 314.389 169.649 312.03 171.067 310.287C170.41 305.001 170.796 299.638 172.205 294.501C172.345 294.026 172.566 293.475 173.051 293.362C173.244 293.342 173.439 293.369 173.619 293.441C173.799 293.512 173.959 293.626 174.086 293.772C174.933 294.566 175.337 295.715 175.704 296.816C176.108 298.009 176.518 299.283 176.21 300.502C176.081 301.042 175.822 301.517 175.671 302.035C175.343 303.076 175.401 304.201 175.833 305.203C176.044 305.569 176.176 305.976 176.221 306.396C176.171 306.757 176.062 307.107 175.898 307.432C175.698 308.071 175.634 308.744 175.711 309.409C175.788 310.074 176.004 310.715 176.345 311.291C177.032 312.437 177.88 313.479 178.863 314.384C178.393 316.455 178.515 318.617 179.213 320.623C179.264 320.713 179.296 320.812 179.308 320.915C179.32 321.018 179.312 321.122 179.283 321.222C179.186 321.427 178.938 321.502 178.744 321.648C178.205 322.091 178.539 322.927 178.901 323.505C179.891 325.09 180.984 326.608 182.173 328.049C183.251 329.339 183.154 331.827 184.761 332.291C185.436 332.437 186.135 332.437 186.81 332.291C188.395 332.048 190.163 331.589 190.94 330.186C191.258 329.609 191.387 328.907 191.883 328.475C192.379 328.043 193.021 327.968 193.296 327.45C193.57 326.932 193.263 326.252 193.355 325.653C193.446 325.054 193.969 324.573 194.137 323.942C194.536 322.485 192.837 321.286 192.605 319.797C192.271 317.638 194.988 316.019 194.875 313.86C194.638 309.17 194.487 304.458 194.244 299.768C193.94 295.567 193.897 291.351 194.115 287.145C194.304 284.527 194.654 281.785 193.694 279.351C192.314 275.919 188.508 273.992 184.826 273.625C181.143 273.258 177.472 274.132 173.822 274.704C167.764 275.639 161.61 275.768 155.519 275.088Z" fill="#002B5C"/>
<path d="M166.463 223.503C171.233 223.503 175.1 219.632 175.1 214.857C175.1 210.081 171.233 206.21 166.463 206.21C161.693 206.21 157.826 210.081 157.826 214.857C157.826 219.632 161.693 223.503 166.463 223.503Z" fill="#FBBEBE"/>
<path d="M162.946 225.116C162.653 225.8 162.16 226.379 161.531 226.777C160.903 227.175 160.169 227.373 159.426 227.345C159.113 228.641 159.863 229.947 160.72 230.967C162.5 233.04 164.8 234.601 167.384 235.488C169.967 236.375 172.74 236.556 175.417 236.013C176.458 235.826 177.446 235.414 178.312 234.804C179.478 233.829 180.262 232.471 180.522 230.972C180.77 229.483 180.841 227.971 180.732 226.466C180.763 226.168 180.678 225.871 180.495 225.634C180.28 225.467 180.013 225.38 179.74 225.386C177.918 225.224 176.015 225.154 174.414 224.258C172.813 223.362 171.675 221.338 172.446 219.676C172.322 219.935 169.173 220.059 168.758 220.113C167.459 220.297 166.16 220.502 164.866 220.739C164.244 220.773 163.63 220.89 163.038 221.085C162.256 221.489 162.548 221.29 162.731 222.024C163.006 223.146 163.41 223.95 162.946 225.116Z" fill="#FBBEBE"/>
<path d="M169.519 230.373C168.356 230.386 167.195 230.258 166.063 229.99C164.92 229.723 163.912 229.05 163.227 228.095C162.828 227.491 162.569 226.73 161.933 226.39C160.893 225.85 159.707 226.762 158.876 227.599C158.12 228.424 157.244 229.13 156.278 229.693C155.124 230.303 153.776 230.519 152.687 231.237C151.836 231.88 151.106 232.669 150.531 233.568L142.891 243.984C139.823 248.173 137.155 252.668 134.421 257.088C132.055 260.915 130.815 265.319 129.03 269.448C128.889 269.7 128.83 269.991 128.863 270.279C128.928 270.559 129.267 270.786 129.504 270.624C128.701 271.423 129.407 272.783 129.219 273.906C129.004 274.691 128.557 275.393 127.936 275.919C129.122 275.764 130.327 275.82 131.494 276.086C132.7 276.428 133.838 276.976 134.858 277.705C135.51 277.603 135.451 276.442 135.936 276.01C136.227 275.757 136.659 275.789 137.041 275.714C138.481 275.433 139.052 273.701 140.158 272.724C141.08 271.909 142.384 271.644 143.36 270.878C144.945 269.631 145.285 267.413 146.115 265.573C146.821 264.013 147.932 262.653 148.552 261.055C148.956 260.019 149.15 258.896 149.727 257.941C150.649 256.398 152.385 255.577 154.04 254.838C155.086 254.368 156.197 253.883 157.324 253.958C157.264 256.468 156.946 258.94 157.491 261.39C157.679 262.253 157.944 263.095 158.17 263.953C159.2 267.818 159.442 271.844 159.491 275.827C161.968 275.26 164.498 274.956 167.039 274.92C169.039 274.861 171.034 275.12 173.034 275.082C175.406 275.039 177.751 274.58 180.123 274.418C182.496 274.256 184.976 274.418 187.073 275.498C186.903 272.077 186.998 268.649 187.359 265.243L187.93 259.879C188.059 258.32 188.299 256.773 188.647 255.248C188.96 254.018 189.413 252.83 189.758 251.605C190.971 247.287 190.75 242.678 190.518 238.183C190.399 235.873 189.51 233.6 188.464 231.544C188.085 230.78 187.653 230.045 187.17 229.342C185.906 227.599 184.222 226.205 182.274 225.289C180.326 224.374 178.179 223.967 176.031 224.107C175.757 224.116 175.487 224.174 175.234 224.28C174.779 224.571 174.423 224.995 174.215 225.494C173.099 227.501 171.481 229.183 169.519 230.373Z" fill="#002B5C"/>
<path d="M158.866 217.722C159.109 217.183 159.761 216.983 160.16 216.551C160.926 215.731 160.581 214.419 160.699 213.313C160.894 211.694 162.236 210.339 163.773 209.762C165.339 209.258 167.007 209.152 168.625 209.454C169.403 209.511 170.156 209.761 170.814 210.183C171.094 210.388 171.353 210.652 171.617 210.841C172.098 211.132 172.675 211.224 173.223 211.096C173.771 210.968 174.247 210.63 174.55 210.156C172.641 207.856 170.528 205.428 167.627 204.721C166.632 204.517 165.618 204.422 164.603 204.435C163.26 204.408 161.875 204.386 160.635 204.899C158.947 205.595 157.761 207.198 157.152 208.925C156.619 210.676 156.334 212.492 156.306 214.322C156.195 215.543 156.195 216.771 156.306 217.992C156.514 219.659 157.133 221.249 158.106 222.617C158.238 222.83 158.424 223.003 158.645 223.119C161.104 224.199 158.667 218.17 158.866 217.722Z" fill="#002B5C"/>
<path d="M174.269 208.823C173.972 206.281 172.161 204.181 170.236 202.492C168.685 201.027 166.837 199.914 164.818 199.227C162.785 198.628 160.446 198.757 158.704 199.972C157.303 200.948 156.413 202.503 155.728 204.068C154.829 205.915 154.383 207.95 154.429 210.005C154.564 212.045 155.556 214.112 157.324 215.143C157.96 214.204 159.066 213.718 160.128 213.335C164.757 211.576 169.477 210.07 174.269 208.823Z" fill="#FED253"/>
<path opacity="0.1" d="M157.916 207.765C158.089 207.765 158.202 207.943 158.288 208.089C158.727 208.773 159.105 209.496 159.415 210.248C158.784 210.383 157.701 210.534 157.388 209.978C157.221 209.697 157.42 207.738 157.916 207.765Z" fill="black"/>
<path opacity="0.1" d="M170.205 206.545C170.075 206.669 169.924 206.416 169.924 206.232V204.138C169.921 204.08 169.934 204.022 169.962 203.971C169.984 203.945 170.012 203.924 170.042 203.91C170.073 203.895 170.106 203.886 170.14 203.884C170.577 203.836 170.938 204.208 171.218 204.564C171.644 205.142 172.014 205.758 172.324 206.405L170.043 206.335" fill="black"/>
<path d="M198.664 241.221C199.16 240.75 199.69 240.315 200.249 239.92C201.742 238.922 203.549 238.528 205.225 237.891C206.902 237.254 208.606 236.223 209.258 234.55C209.585 233.504 209.691 232.402 209.571 231.312C209.586 230.856 209.505 230.402 209.333 229.979C209.128 229.606 208.836 229.287 208.482 229.051C206.207 227.367 203.155 227.232 200.33 227.405C194.102 227.791 187.997 229.317 182.318 231.906C182.017 232.005 181.754 232.193 181.563 232.446C181.452 232.679 181.402 232.937 181.417 233.196C181.317 234.787 181.524 236.383 182.026 237.897C182.77 239.818 184.302 241.367 184.943 243.326C185.234 244.206 185.331 245.139 185.585 246.024C185.793 246.939 186.333 247.743 187.1 248.28C189.229 249.554 191.24 247.843 192.717 246.516L198.664 241.221Z" fill="#002B5C"/>
<path d="M170.775 248.696L168.041 242.727C167.641 241.9 167.295 241.047 167.006 240.174C166.693 239.132 166.542 238.053 166.251 237.006C165.292 233.52 162.871 230.616 161.69 227.2C161.616 226.891 161.463 226.607 161.248 226.374C161.076 226.252 160.879 226.169 160.671 226.132C160.463 226.095 160.25 226.103 160.046 226.158C158.396 226.444 157.108 227.702 155.598 228.414C154.897 228.738 154.142 228.954 153.442 229.326C153.091 229.492 152.781 229.732 152.531 230.029C152.282 230.326 152.1 230.674 151.997 231.048C151.83 231.873 152.239 232.667 152.584 233.471C154.051 236.785 154.385 240.487 154.45 244.114C154.498 246.553 154.374 249.171 152.935 251.13C150.169 254.908 151.937 260.456 152.973 265.027C153.097 265.567 153.242 266.15 153.328 266.722C153.42 267.438 153.461 268.159 153.452 268.881C153.452 271.304 153.318 273.803 152.304 276C153.305 276.533 154.408 276.845 155.539 276.917C158.669 277.317 161.813 277.597 164.968 277.759C165.957 277.852 166.954 277.801 167.928 277.608C169.085 277.295 170.105 276.605 170.826 275.647C171.548 274.69 171.93 273.518 171.912 272.319C172.085 273.814 172.403 275.438 173.487 276.475C174.57 277.511 176.15 277.667 177.622 277.748C181.776 277.969 185.941 277.852 190.076 277.398C190.34 277.386 190.599 277.325 190.841 277.219C191.639 276.82 191.682 275.719 191.617 274.834C191.499 273.177 191.375 271.52 191.175 269.874C191.006 268.825 190.92 267.764 190.917 266.701C190.999 265.607 191.179 264.523 191.456 263.462C192.178 260.095 192.75 256.657 192.507 253.208C192.411 252.368 192.377 251.522 192.405 250.677C192.545 248.772 193.548 246.958 193.359 245.064C192.82 239.494 192.383 233.779 190.83 228.403C190.55 227.442 190.194 226.412 189.359 225.861C188.28 225.138 186.765 225.516 185.531 225.057C184.951 224.787 184.401 224.46 183.886 224.08C182.769 223.381 181.488 222.986 180.172 222.936C179.18 222.898 178.075 223.119 177.476 223.918C177.199 224.368 177.016 224.869 176.937 225.392C176.155 228.684 175.239 231.938 174.322 235.193L173.443 238.312L171.087 246.688C170.856 247.579 171.012 247.854 170.775 248.696Z" fill="#1B5BA9"/>
<path d="M184.562 216.017L236.712 270.878V275.53H213.459L174.27 224.328" fill="#949CA1"/>
<path opacity="0.1" d="M184.562 216.017L236.712 270.878V275.53H213.459L174.27 224.328" fill="black"/>
<path opacity="0.1" d="M175.1 223.605L175.267 223.665L213.793 270.878H236.712V275.53H213.459L174.27 224.328L175.1 223.605Z" fill="black"/>
<path d="M181.1 224.76C179.213 225.586 177.116 226.644 176.55 228.63C176.438 228.978 176.414 229.349 176.48 229.709C176.617 230.133 176.88 230.504 177.234 230.775C177.587 231.046 178.014 231.203 178.458 231.226C179.346 231.247 180.229 231.086 181.051 230.751L192.184 227.07C192.486 226.973 192.831 226.827 192.907 226.53C192.926 226.344 192.889 226.155 192.799 225.991C192.454 225.149 192.114 223.427 191.392 222.839C190.799 222.364 189.624 222.531 188.907 222.542C186.146 222.563 183.553 223.681 181.1 224.76Z" fill="#1B5BA9"/>
<path d="M191.026 227.507C192.902 227.502 194.766 227.791 196.552 228.365C198.346 228.948 199.935 230.035 201.129 231.496C201.477 231.904 201.725 232.388 201.852 232.91C201.96 233.449 203.717 233.773 203.329 234.14C204.51 233.951 204.229 234.507 205.426 234.496C206.623 234.486 207.917 234.178 208.634 233.223C209.132 232.438 209.354 231.509 209.265 230.583C209.281 229.943 209.159 229.306 208.909 228.716C208.37 227.583 207.13 226.973 205.987 226.449L196.358 222.04C195.799 221.742 195.2 221.53 194.579 221.408C194.056 221.359 193.53 221.372 193.01 221.446L188.648 221.948C189.602 222.566 190.379 223.422 190.902 224.432C191.424 225.442 191.675 226.57 191.63 227.707" fill="#002B5C"/>
</g>
<defs>
<clipPath id="clip0_3800_21818">
<rect width="635" height="391" fill="white"/>
</clipPath>
</defs>
</svg>
