<svg width="306" height="230" viewBox="0 0 306 230" fill="none" xmlns="http://www.w3.org/2000/svg">
<g clip-path="url(#clip0_3085_24539)">
<path d="M103.252 229.978V221.738C102.281 221.405 101.427 220.797 100.794 219.988L100.512 219.621L100.131 218.726C99.6386 217.54 98.8864 213.714 99.3789 210.223V210.071C99.5201 208.701 99.9801 207.383 100.722 206.222C100.655 205.533 100.315 204.235 99.0879 201.993L98.9938 201.814C96.867 197.759 98.2327 192.63 99.3341 188.508C99.5849 187.568 99.9028 186.378 100.042 185.59C97.2834 183.679 95.6088 181.343 93.3253 172.454C90.6074 172.199 88.4895 170.83 87.4418 168.655C83.1792 164.412 79.2747 156.763 75.8315 145.892C75.7285 145.57 75.6255 145.239 75.5226 144.908C74.4434 144.823 73.4151 144.414 72.5722 143.736C71.7293 143.057 71.1111 142.139 70.7987 141.104C70.65 140.728 70.558 140.333 70.5256 139.931C70.257 136.521 69.4331 127.811 67.548 120.516C64.4138 108.504 64.6645 92.079 75.5718 85.33C75.8673 85.1465 76.2569 84.9495 77.6583 84.2693C88.5433 78.9748 95.3939 74.7454 98.0491 71.6797C98.0849 70.1446 98.3804 68.3052 99.6341 64.7561L99.8938 64.0311C100.543 62.2006 100.995 60.9341 101.685 60.0255C101.479 58.853 101.237 57.7609 100.986 56.8121C99.2288 56.0918 97.789 54.7639 96.9297 53.0706C96.4819 52.3232 96.0342 52.0547 95.1745 51.5221C93.61 50.6699 92.2844 49.4388 91.3193 47.9417C89.4074 44.9252 89.1925 41.2016 90.5581 38.494C86.6851 30.6842 85.9821 19.5671 92.882 10.7056C98.8461 3.04808 106.619 -1.34238 114.213 -1.34238C116.897 -1.37035 119.546 -0.733795 121.923 0.510474C124.091 1.68753 127.077 3.94765 129.11 5.59463C130.96 4.72587 132.976 4.26783 135.02 4.25198C137.53 4.28693 139.992 4.94518 142.184 6.16749C143.528 6.80749 151.345 10.9115 151.507 19.0972C151.547 20.5696 150.678 22.7939 148.659 24.3917C147.024 25.6806 144.674 26.3117 141.495 26.3117H141.45C141.531 26.7592 141.611 27.2694 141.701 27.8289C141.909 29.1411 142.234 30.4322 142.672 31.6867L142.789 32.0269C143.684 34.4226 144.328 36.9049 144.71 39.4338C144.932 40.4922 145.281 41.5199 145.748 42.495C145.954 42.9873 146.174 43.5155 146.402 44.0973C149.21 51.2178 149.751 60.0345 147.638 64.1698C147.307 64.8188 146.984 65.3872 146.666 65.8884C147.159 65.9735 147.665 66.0719 148.189 66.1883C158.935 60.3701 168.875 55.0309 178.52 49.8528L178.757 49.7274L179.831 49.3426L180.848 49.4097L181.031 49.441C199.282 52.6231 218.576 56.0289 240.028 59.851L242.222 60.2448L243.019 63.0107C243.838 65.8526 263.127 132.716 263.754 135.03L263.875 135.478V135.993C263.875 137.214 263.391 138.888 261.05 139.909C260.311 140.231 259.209 140.607 256.854 141.377L254.889 142.025C255.324 143.736 255.133 145.545 254.351 147.128C253.963 147.86 253.426 148.502 252.774 149.014C252.123 149.526 251.371 149.896 250.568 150.099C250.01 151.011 249.259 151.79 248.368 152.381C247.477 152.971 246.467 153.36 245.41 153.519C244.066 154.978 241.872 156.311 238.246 156.454L238.093 156.495C235.588 157.22 232.996 157.609 230.387 157.649C228.679 157.662 226.976 157.44 225.328 156.991C224.164 157.135 220.944 158.75 218.567 159.941C212.813 162.823 204.937 166.77 197.249 166.77C195.924 166.774 194.601 166.65 193.3 166.399C192.32 166.261 191.33 166.209 190.34 166.242C189.937 166.242 189.53 166.242 189.127 166.242C190.806 177.879 192.969 186.015 201.337 203.671L201.543 204.118C201.659 204.321 201.76 204.532 201.843 204.749L202.81 206.79L202.045 207.193C202.045 207.256 202.018 207.318 202 207.381C201.713 208.417 201.12 209.342 200.298 210.035C200.5 214.063 200.746 220.852 200.854 226.335L200.934 229.991L103.252 229.978Z" fill="white"/>
<path d="M94.6555 37.1827C94.6555 37.1827 87.0436 23.4698 95.6853 13.6595C104.327 3.84923 108.563 3.51804 110.488 3.00784C112.413 2.49763 120.164 2.36337 124.489 6.68669C128.815 11.01 128.667 9.91351 128.667 9.91351C128.667 9.91351 131.833 7.46095 134.779 7.72053C137.725 7.98011 148.099 10.8936 147.723 19.1823L140.828 21.6617L136.628 21.7915C136.628 21.7915 136.435 15.5974 125.779 17.0788C125.779 17.0788 120.536 24.3738 118.378 25.4077C116.219 26.4415 106.149 30.5679 106.149 30.5679L98.1435 37.854H95.1077L94.6555 37.1827Z" fill="black"/>
<path d="M180.024 52.9541C168.53 59.1213 156.293 65.7182 142.605 73.1162L142.265 73.3042L142.081 72.9595C141.159 71.2141 136.467 70.4309 136.668 68.1663L141.123 66.6804L143.035 65.0469C143.774 60.2089 144.938 56.5434 144.472 52.7706L142.731 46.769C138.625 29.9546 136.202 13.3371 129.638 11.7214C123.723 15.3332 120.88 19.9429 117.401 24.5527C113.595 29.5921 109.557 29.0998 101.421 30.8452L95.2194 38.5699L93.6209 40.7181C92.2374 43.108 95.3179 47.0599 99.191 49.3334C101.663 50.788 101.372 53.6478 103.937 53.1108C105.482 55.3037 106.749 62.1647 104.085 63.9056C104.009 63.9549 101.797 73.1386 101.712 73.2012C101.152 74.2037 99.4731 78.3928 80.4122 86.6277C79.4719 87.035 78.7241 87.3572 78.6212 87.4019C69.2183 92.1728 68.1392 107.094 71.0944 118.95C73.3601 127.686 74.2018 138.964 74.2287 139.537C74.5153 141.081 75.657 141.775 77.5287 141.569L77.851 141.533L77.9451 141.846C80.4077 150.372 84.5136 161.614 90.0703 166.766L90.1419 166.833L90.1732 166.927C91.0688 169.523 94.1403 169.335 95.4254 169.129L95.7791 169.075L95.8642 169.424C98.6134 180.886 100.158 181.884 102.303 183.262L102.697 183.518C103.825 184.252 103.243 186.458 102.442 189.51C101.506 193.091 100.337 197.521 101.833 200.368C103.207 202.932 104.64 206.311 103.624 207.846C103.026 208.69 102.656 209.673 102.549 210.702V210.822C102.169 213.508 102.746 216.744 103.078 217.536L103.225 217.898H103.203C103.566 218.587 104.721 218.999 106.024 218.869L106.449 218.829V226.715H197.339C197.204 220.427 196.891 212.25 196.69 208.656V208.406L196.913 208.289C197.845 207.815 198.458 207.22 198.597 206.66C198.634 206.513 198.638 206.359 198.607 206.21C198.576 206.061 198.511 205.921 198.418 205.801L198.167 205.434L198.234 205.403C188.272 184.417 187.04 177.373 185.196 163.534L185.142 163.118L185.558 163.096C191.514 162.787 192.978 163.033 194.267 163.248C195.212 163.42 196.172 163.499 197.133 163.485C204.015 163.485 211.461 159.748 216.928 157.018C220.922 155.013 224.347 153.299 225.923 153.773C230.432 155.116 235.268 153.818 237.086 153.326L237.632 153.187H237.704C240.511 153.142 242.37 152.292 243.39 150.538L243.507 150.341H243.735C245.849 150.399 247.317 149.401 248.141 147.32L248.24 147.083H248.49C249.749 147.051 250.729 146.572 251.208 145.74C251.889 144.585 251.656 142.791 250.559 140.687L250.187 140.105L250.635 139.944L256.63 137.921C259.613 136.919 259.89 136.82 259.989 136.744C260.056 136.693 260.128 136.648 260.204 136.61C260.374 135.871 258.798 130.429 251.638 105.729C248.696 95.5742 244.675 81.6867 239.396 63.373C217.904 59.542 198.57 56.1317 180.293 52.9452H180.257C180.216 52.9371 180.173 52.9371 180.132 52.9452H180.064L179.867 52.6095L180.024 52.9541Z" fill="#FFC0A3"/>
<g style="mix-blend-mode:overlay" opacity="0.75">
<path d="M190.018 143.448C186.221 143.448 180.105 138.781 175.949 140.58C176.191 137.375 171.114 134.198 169.233 131.776C167.353 129.355 165.512 126.374 166.265 123.394C166.712 121.563 168.087 120.104 169.502 118.86C170.917 117.616 172.457 116.452 173.496 114.877C174.148 113.825 174.501 112.615 174.517 111.377C174.579 110.316 174.351 109.838 175.215 110.146C175.538 110.913 175.728 111.729 175.775 112.559L173.576 116.788L168.772 123.949L170.03 128.465L180.821 135.93C182.455 137.814 188.54 141.247 190.018 143.448Z" fill="white"/>
</g>
<path d="M202.004 138.588L190.918 142.898L180.821 135.916L170.03 128.451L168.772 123.936L173.577 116.775L175.775 112.545C175.728 111.715 175.538 110.899 175.215 110.133C174.593 108.826 173.527 108.867 172.081 110.03L169.506 112.836L160.457 121.161L148.847 128.711C142.256 131.334 133.435 131.781 126.88 135.16C122.515 115.683 116.582 88.4583 116.224 88.3062L180.038 54.0374L180.315 54.0776L202.004 138.588Z" fill="#CCAC7E"/>
<path d="M129.638 98.085L134.658 118.645L177.808 97.9329L171.969 76.4326L129.638 98.085Z" fill="white"/>
<path d="M259.904 136.167L239.405 63.7357L180.315 54.082L202.009 138.593L202.188 138.526L259.904 136.167Z" fill="#F7F0DC"/>
<g style="mix-blend-mode:overlay" opacity="0.75">
<path d="M180.315 54.0908L180.038 54.0505L116.224 88.3059C116.318 88.3417 178.05 59.081 178.05 59.081L200.827 134.001L180.315 54.0908Z" fill="white"/>
</g>
<g style="mix-blend-mode:overlay">
<path d="M181.264 54.6548L238.671 64.5456L185.057 58.6424L200.961 138.682L181.264 54.6548Z" fill="white"/>
</g>
<path d="M133.803 165.114L162.293 154.038L151.01 147.181L151.149 147.042C144.558 149.665 138.643 153.979 132.088 157.363C133.14 162.134 133.803 165.114 133.803 165.114Z" fill="#B09774"/>
<path d="M119.855 104.082C118.919 99.2352 116.801 93.1888 115.579 88.4179C117.119 86.3906 119.282 86.7262 125.071 82.0941L109.7 69.509C109.18 69.2584 104.479 63.57 104.278 63.7625C104.21 63.8251 101.058 74.2217 100.969 74.2843C100.413 75.2869 99.4731 78.8001 80.4122 87.0171C79.4719 87.4244 78.7242 87.7466 78.6212 87.7958C69.2183 92.5622 68.1392 107.488 71.0944 119.339C73.3601 128.08 74.2018 139.353 74.2287 139.926C74.2813 140.267 74.408 140.593 74.5998 140.88C74.7916 141.166 75.044 141.408 75.3391 141.587C79.942 133.929 102.169 124.611 106.883 131.459C107.779 132.761 107.08 133.858 106.969 135.361C109.467 134.999 112.095 135.361 114.621 135.599C118.503 135.961 122.264 136.046 126.088 136.708C126.168 136.637 126.253 136.574 126.338 136.507C124.677 130.953 125.035 124.499 123.526 119.08C122.062 113.892 120.876 109.386 119.855 104.082Z" fill="black"/>
<g style="mix-blend-mode:multiply" opacity="0.3">
<path d="M124.391 136.073C123.376 122.088 121.022 108.233 117.361 94.697C117.544 99.6134 116.915 104.526 115.498 109.238C115.136 110.671 114.509 112.023 113.649 113.226C112.754 114.38 111.352 115.253 109.879 115.213C108.406 115.172 107.448 114.04 106.57 112.832C106.091 112.169 105.809 111.167 105.504 110.41C105.872 112.299 107.537 130.031 107.537 130.031L106.946 135.361L124.391 136.073Z" fill="#034E7C"/>
</g>
<g style="mix-blend-mode:multiply" opacity="0.3">
<path d="M75.9663 105.465C74.323 90.208 87.4556 88.7221 91.6869 89.1428C86.8422 86.6276 80.4125 86.9991 76.7633 90.0961C72.5947 95.3861 69.5992 102.014 71.2917 113.955L75.9887 137.809C80.5468 132.837 86.7348 130.917 96.4242 129.109C81.0304 127.802 76.5886 111.243 75.9663 105.465Z" fill="#034E7C"/>
</g>
<path d="M198.154 205.43L198.221 205.398C190.457 189.045 187.99 181.159 186.414 171.926C181.694 170.606 177.038 169.026 172.332 167.634C147.705 160.343 117.912 159.426 97.4807 175.323C99.3165 181.302 100.637 182.157 102.334 183.249L102.728 183.504C103.857 184.238 103.275 186.444 102.473 189.497C101.537 193.077 100.369 197.508 101.864 200.354C103.239 202.919 104.672 206.298 103.655 207.833C103.058 208.677 102.687 209.66 102.581 210.688V210.809C102.2 213.494 102.778 216.73 103.109 217.522L103.257 217.885H103.234C103.597 218.574 104.752 218.986 106.055 218.856L106.481 218.816V226.702H197.339C197.205 220.413 196.891 212.237 196.69 208.643V208.392L196.914 208.276C197.845 207.802 198.458 207.206 198.597 206.647C198.634 206.499 198.638 206.345 198.607 206.197C198.576 206.048 198.511 205.908 198.418 205.788L198.154 205.43Z" fill="black"/>
<g style="mix-blend-mode:multiply" opacity="0.3">
<path d="M193.21 197.754C187.157 188.441 184.663 181.262 173.997 178.151C163.332 175.041 143.04 174.209 132.07 175.958C117.45 178.286 117.374 203.317 132.07 203.841C138.486 204.069 158.662 206.079 175.452 208.876C154.511 215.119 118.032 234.207 108.737 220.722C108.092 219.791 103.7 214.81 103.7 214.81L105.379 206.678L102.151 197.387L104.864 184.856L101.246 175.56L116.223 168.216L132.07 163.266L168.208 170.798L186.221 176.616L193.21 197.754Z" fill="#034E7C"/>
</g>
<path d="M253.912 131.615L242.441 131.906L240.883 124.889L251.974 124.701L253.912 131.615Z" fill="white"/>
<g style="mix-blend-mode:overlay" opacity="0.75">
<path d="M95.936 140.58C95.936 140.58 111.849 137.223 123.343 140.58C123.343 140.58 139.095 134.05 147.074 134.99C147.074 134.99 148.22 130.067 154.583 126.102C148.838 128.711 133.673 133.831 129.988 135.12L108.048 135.406L105.867 113.293C105.505 122.673 102.536 134.551 95.936 140.58Z" fill="white"/>
</g>
<path d="M134.958 70.1265L135.338 76.7816L148.381 70.2026C144.62 68.4124 138.535 69.4552 134.958 70.1265Z" fill="black"/>
<path d="M126.831 52.7705C126.831 52.7705 129.07 54.064 132.594 53.3524C136.117 52.6408 136.932 50.5955 136.932 50.5955L136.435 48.8813L126.831 52.7705Z" fill="white"/>
<path d="M114.401 37.8538C115.352 36.8563 116.486 36.051 117.742 35.4818C119.774 34.5867 120.934 34.7254 121.301 35.3833C122.51 37.5495 116.649 39.823 115.104 38.9637C114.213 38.373 114.401 37.8538 114.401 37.8538Z" fill="white"/>
<path d="M129.07 32.7921C129.896 31.8603 130.907 31.1104 132.038 30.5901C133.829 29.798 134.317 30.3619 134.64 31.0377C135.719 33.2754 131.058 34.8732 129.714 33.9333C128.886 33.2978 129.07 32.7921 129.07 32.7921Z" fill="white"/>
<g style="mix-blend-mode:multiply">
<path d="M82.4094 138.749C82.4094 138.749 83.8959 151.979 91.5705 156.7C99.245 161.422 129.034 152.82 129.034 152.82C129.034 152.82 141.907 143.627 147.182 144.639C152.456 145.65 162.437 150.394 167.545 149.508C172.654 148.622 181.381 150.712 181.381 150.712L193.251 143.448L202.005 142.898L184.672 161.44L163.749 154.959L151.131 147.033L134.958 156.074L100.969 168.757L92.2689 167.92L85.8079 159.265L79.8169 143.909L82.4094 138.749Z" fill="#F2CEBD"/>
</g>
<g style="mix-blend-mode:multiply">
<path d="M114.384 31.0198C125.783 26.5443 131.6 23.9216 137.107 26.8397L135.097 18.7838L129.245 16.2417C129.245 16.2417 113.703 29.1759 104.86 31.4584C96.0166 33.7409 103.539 32.9487 103.539 32.9487C103.539 32.9487 101.363 34.0541 102.446 33.9467L100.969 33.7901L101.864 37.8583L109.028 55.5857C109.028 55.5857 119.586 58.5843 120.021 58.3919C120.455 58.1994 123.379 50.7119 123.379 50.7119C114.872 54.6996 107.287 44.2135 105.402 37.6524C105.258 37.1314 105.222 36.5864 105.295 36.0509C105.369 35.5154 105.551 35.0006 105.831 34.5378C106.11 34.075 106.481 33.674 106.921 33.3592C107.361 33.0444 107.86 32.8225 108.388 32.707C110.42 32.2703 112.422 31.7068 114.384 31.0198V31.0198Z" fill="#F2CEBD"/>
</g>
<g style="mix-blend-mode:multiply">
<path d="M132.956 68.484L113.846 59.7926V58.3962L107.282 48.8813C107.282 48.8813 104.833 53.8044 100.969 51.495L101.864 52.8019L104.551 54.6503L106.503 63.1313C106.503 63.1313 109.561 62.3526 113.846 66.1299C118.771 72.7894 125.855 80.4022 131.6 78.6075C138.576 76.4324 132.956 68.484 132.956 68.484Z" fill="#F2CEBD"/>
</g>
<g style="mix-blend-mode:overlay" opacity="0.75">
<path d="M131.864 40.4765C132.025 40.5794 132.209 40.651 132.356 40.7674C132.559 40.9679 132.735 41.1935 132.88 41.4387C132.954 41.5604 133.059 41.6605 133.184 41.7289C133.309 41.7972 133.45 41.8314 133.592 41.8281C133.743 41.7814 133.872 41.681 133.955 41.5458C134.037 41.4106 134.068 41.25 134.04 41.0941C133.974 40.7768 133.796 40.4938 133.538 40.2974C133.12 39.8869 132.576 39.6285 131.994 39.5635C131.425 39.5814 131.412 40.2169 131.864 40.4765Z" fill="white"/>
</g>
<g style="mix-blend-mode:overlay" opacity="0.75">
<path d="M126.141 31.5032C126.035 31.2794 125.98 31.0348 125.98 30.7871C125.982 30.6625 126.022 30.5415 126.096 30.4411C126.17 30.3408 126.274 30.2661 126.392 30.2277C126.513 30.2125 126.635 30.2337 126.744 30.2888C126.853 30.3438 126.942 30.4301 127.001 30.5365C127.116 30.7502 127.187 30.9844 127.212 31.2257C127.44 32.4629 127.826 33.666 128.358 34.8061C128.855 35.8803 130.597 38.0688 131.008 39.1384C130.149 39.2011 128.394 35.9116 128.022 35.294C127.293 34.0834 126.664 32.8156 126.141 31.5032Z" fill="white"/>
</g>
<g style="mix-blend-mode:overlay" opacity="0.75">
<path d="M132.003 53.7687C131.81 53.9522 131.497 53.8493 131.237 53.7687C130.977 53.6882 130.606 53.7687 130.592 54.0373C130.579 54.3058 130.901 54.3998 131.152 54.4266C132.41 54.5743 133.722 54.6415 134.904 54.1939C136.086 53.7464 137.143 52.6767 137.143 51.4102C137.154 51.3442 137.15 51.2765 137.131 51.2122C137.113 51.1479 137.08 51.0886 137.035 51.0387C136.825 50.8462 136.512 51.0879 136.323 51.3027C135.672 52.0332 134.875 52.6198 133.984 53.0252C133.092 53.4305 132.127 53.6456 131.147 53.6568L132.003 53.7687Z" fill="white"/>
</g>
<g style="mix-blend-mode:multiply" opacity="0.3">
<path d="M91.6196 88.7223C90.2316 86.14 89.4569 84.0454 103.946 77.5963C103.599 75.6846 103.685 73.7195 104.197 71.8453C104.622 70.3102 105.321 68.8646 105.67 67.3116C106.019 65.7586 105.97 64.0087 105.003 62.7466C101.99 66.1569 103.109 71.805 100.333 75.4122C99.1956 76.8802 97.5344 77.8335 95.918 78.7509C95.0986 78.7509 93.339 80.2144 92.6002 80.6351L89.0719 82.6312L85.6376 84.5736C84.6301 85.1464 83.0854 85.7193 82.3376 86.5472C83.0003 87.138 84.6033 86.9053 85.4719 86.9501C86.7212 87.0172 90.3748 88.6552 91.6196 88.7223Z" fill="#034E7C"/>
</g>
<g style="mix-blend-mode:multiply" opacity="0.3">
<path d="M133.906 77.8513L149.25 70.6905C148.829 70.8875 146.649 69.9834 146.116 69.8626C145.065 69.6209 144.006 69.4165 142.937 69.2494C140.806 68.9138 138.459 68.5468 136.319 68.6855C134.179 68.8242 134.528 70.0282 134.703 71.7154C134.936 73.795 134.662 75.9002 133.906 77.8513V77.8513Z" fill="#034E7C"/>
</g>
<g style="mix-blend-mode:multiply" opacity="0.3">
<path d="M95.6853 14.4336C95.6853 14.4336 86.9093 24.5527 93.8495 35.4684L95.6853 38.364L98.1435 37.8404L102.173 32.1923L112.884 27.135C112.884 27.135 116.685 24.8122 119.658 19.4551C115.337 21.9255 111.513 23.2145 109.463 20.292C109.445 20.3054 102.133 10.7547 95.6853 14.4336Z" fill="#034E7C"/>
</g>
<path d="M171.723 144.397C173.093 145.346 174.857 143.301 173.814 141.681C173.438 142.804 173.353 143.941 171.723 144.397Z" fill="#381A1A"/>
<path d="M168.351 148.255C169.56 149.365 171.606 147.606 170.787 145.847C170.263 146.912 170.026 148.022 168.351 148.255Z" fill="#381A1A"/>
<path d="M164.939 151.733C166.045 152.905 168.248 151.357 167.545 149.495C166.941 150.538 166.623 151.621 164.939 151.733Z" fill="#381A1A"/>
<path d="M175.596 140.186C177.051 140.893 178.565 138.669 177.244 137.183C177.033 138.4 177.123 139.492 175.596 140.186Z" fill="#381A1A"/>
<path d="M93.9165 161.234C107.703 162.599 126.634 157.014 137.411 148.484C133.968 150.184 130.498 151.71 126.965 153.084C116.344 157.206 105.237 159.945 93.9165 161.234V161.234Z" fill="#381A1A"/>
<path d="M108.191 156.315C106.4 156.521 104.609 156.835 102.845 157.049C94.4894 158.182 92.0044 156.915 88.7402 152.82C89.3429 154.33 90.316 155.665 91.57 156.7C96.0834 160.003 103.024 158.37 108.191 156.315Z" fill="#381A1A"/>
<path d="M122.721 30.0306C122.022 30.138 118.243 30.9884 118.243 30.9884C113.734 31.973 110.748 35.5668 110.497 37.8538C113.488 35.4683 117.491 32.9307 121.368 32.5279C121.368 32.5279 123.128 32.3802 123.303 32.0804C123.477 31.7805 123.415 29.9232 122.721 30.0306Z" fill="#381A1A"/>
<path d="M117.71 34.9761C116.051 35.5832 114.675 36.7819 113.846 38.3416L115.454 39.5948L114.782 38.373L115.763 37.4107C117.195 39.3128 120.433 38.2611 119.533 35.5265C121.821 34.9044 122.913 36.1039 122.913 36.1039C122.739 35.0521 120.482 33.9825 117.71 34.9761Z" fill="#381A1A"/>
<path d="M113.994 37.1826C116.286 34.2691 120.016 33.9334 120.016 33.9334C115.583 32.9488 113.994 37.1826 113.994 37.1826Z" fill="#381A1A"/>
<path d="M135.553 29.1669C131.394 27.5378 129.182 31.4539 129.182 31.4539C131.873 28.9342 135.553 29.1669 135.553 29.1669Z" fill="#381A1A"/>
<path d="M132.392 30.0219C130.646 30.5634 129.11 31.6107 128.667 32.5416C128.743 33.4367 130.606 37.6392 132.844 39.3443C132.844 39.3443 129.898 34.2065 130.413 32.8101C130.413 32.8101 131.308 33.8798 132.5 33.3382C133.691 32.7967 133.373 31.2213 132.862 30.814C132.862 30.814 134.904 30.0577 136.122 30.7022C136.565 30.9394 135.141 29.1626 132.392 30.0219Z" fill="#381A1A"/>
<path d="M126.562 42.938C126.562 42.938 125.452 43.8331 125.47 44.6118C125.47 45.583 126.947 46.684 127.337 46.3528C127.583 46.1424 126.647 45.2339 126.276 44.6029C125.904 43.9718 126.562 42.938 126.562 42.938Z" fill="#381A1A"/>
<path d="M131.17 44.576C129.603 44.303 129.133 44.1643 128.577 44.7863C127.772 45.6814 128.43 46.4602 129.289 45.9723C130.149 45.4845 129.804 45.489 130.839 45.4487C131.671 45.4129 131.873 44.6924 131.17 44.576Z" fill="#381A1A"/>
<path d="M133.252 39.4114C133.723 39.6578 134.121 40.0255 134.403 40.4765C134.549 40.8451 134.618 41.2396 134.606 41.6359C134.595 42.0322 134.503 42.4219 134.335 42.7814C133.941 43.4885 132.795 43.7257 132.674 44.0211C132.029 45.5517 134.685 44.1196 135.267 43.2379C135.849 42.3562 135.558 41.6446 135.5 41.1837C135.338 39.9171 134.488 39.5143 133.252 39.4114Z" fill="#381A1A"/>
<path d="M101.855 43.1573C101.546 41.922 98.8418 39.0712 96.7374 40.2303C94.5613 41.828 96.406 44.7729 96.5403 44.7058C96.8359 44.84 96.1329 42.9782 96.5403 41.7833C96.8627 40.8166 97.9776 40.8569 98.9313 41.2239C100.055 41.6669 101.488 43.5914 101.855 43.1573Z" fill="#381A1A"/>
<path d="M102.545 47.0957C102.46 44.7506 103.418 45.3548 100.051 42.9648C98.439 41.8146 98.1256 44.755 98.6136 44.755C98.9584 44.755 98.9091 44.1464 99.2539 44.1285C99.3927 44.1285 99.4733 44.2717 99.5897 44.3478C101.909 45.9455 101.672 47.9819 100.785 47.9595C100.678 47.9595 100.57 47.9192 100.463 47.9237C100.176 47.9237 100.087 48.2459 100.561 48.3489C102.102 48.6801 101.878 50.2465 102.8 50.2868C103.279 50.3091 103.745 49.7273 103.414 48.9665C103.002 47.9729 102.585 48.1117 102.545 47.0957Z" fill="#381A1A"/>
<path d="M136.073 56.1407C136.356 55.8845 136.552 55.5458 136.632 55.1723C136.713 54.7988 136.674 54.4096 136.521 54.0596C133.601 55.7021 132.294 56.0019 129.253 55.1158C131.416 56.8881 133.995 58.007 136.073 56.1407Z" fill="#381A1A"/>
<path d="M260.871 135.925C260.871 135.742 239.903 63.0822 239.853 62.9076C220.089 59.3839 200.297 55.8916 180.477 52.4305H180.302C180.268 52.4262 180.233 52.4262 180.199 52.4305H180.154L180.065 52.4618L179.993 52.4932C169.519 58.1144 159.058 63.749 148.61 69.3971H148.583C145.086 68.4259 142.261 68.502 139.982 68.3946C140.152 68.2737 140.318 68.1529 140.488 68.0231C142.212 66.6805 143.412 65.8525 144.965 62.8181C146.519 59.7837 146.255 51.9248 143.622 45.2071C142.726 42.938 141.965 41.4656 141.75 39.8365C141.397 37.1512 140.676 35.1104 139.843 32.6757C139.352 31.259 138.986 29.8018 138.75 28.3211C138.506 26.5495 138.145 24.7959 137.671 23.0713C141.54 23.5457 145.023 23.4875 146.828 22.0599C148.086 21.0663 148.552 19.7371 148.538 19.1732C148.408 12.5092 141.419 9.12569 140.846 8.85716C136.256 6.37774 132.245 7.06697 128.756 9.21073C127.274 7.91284 123.164 4.60098 120.513 3.16435C114.621 -0.0266745 103.946 1.42786 95.2734 12.5629C88.772 20.9097 89.8198 31.5434 94.1182 38.7221C92.4839 40.1722 92.0585 43.4795 93.8675 46.3304C95.6764 49.1813 97.9599 48.7517 99.5898 51.6249C100.342 53.0884 101.739 54.252 103.418 54.2699C104.114 56.5701 104.622 58.923 104.936 61.3054C103.857 61.6903 103.79 62.0662 102.478 65.7406C101.009 69.8984 101.027 71.3037 101.076 72.6776C96.6614 79.0373 78.3662 87.12 77.1617 87.8674C67.7857 93.6856 67.6962 109.072 70.4678 119.751C72.0305 125.806 73.0469 133.508 73.5304 139.676C73.5432 139.824 73.5842 139.968 73.6513 140.101C74.0095 141.631 75.4647 142.209 77.7617 141.837C78.0602 142.885 78.3751 143.929 78.7065 144.97C80.8691 151.791 84.7154 162.017 89.9899 166.9C90.7287 169.098 93.057 169.773 95.6674 169.366C98.6047 181.611 100.167 182.05 102.666 183.688C104.77 185.057 98.8734 195.064 101.672 200.395C101.963 200.936 103.534 203.684 103.736 205.98C103.906 208.066 102.872 207.13 102.361 210.491C102.348 210.53 102.331 210.567 102.312 210.603H102.348C102.066 212.922 102.253 215.273 102.899 217.518C103.109 218.646 104.627 219.259 106.243 219.098V226.943H197.876C197.742 220.449 197.429 212.053 197.218 208.477C198.682 207.726 199.645 206.557 198.866 205.425C189.248 185.191 187.542 177.145 185.711 163.329C187.95 163.208 192.118 163.051 193.887 163.4C194.998 163.612 196.127 163.717 197.258 163.714C204.234 163.714 211.622 160.017 217.228 157.206C220.972 155.331 224.509 153.559 225.942 153.988C231.167 155.555 236.885 153.617 237.838 153.411C240.785 153.362 242.764 152.431 243.852 150.569C246.928 150.641 248.114 148.569 248.629 147.306C252.579 147.212 252.932 143.278 250.908 140.146C260.316 137.013 260.92 137.165 260.871 135.925ZM146.483 70.5563L142.476 72.7269C141.459 72.0153 140.313 71.2276 138.773 69.9655C140.479 70.1087 143.107 69.8715 146.483 70.5563ZM135.974 70.8785L135.782 70.2698L136.543 70.046C137.999 71.2827 139.54 72.4162 141.155 73.4385C141.003 73.5235 136.104 76.2222 135.974 76.1238C136.585 74.4287 136.585 72.5736 135.974 70.8785V70.8785ZM132.576 78.0796L129.719 79.6281L125.913 81.6868C118.852 77.086 110.94 70.1669 107.058 65.7003C107.291 60.8668 105.764 55.4067 105.267 53.7687C105.621 53.5323 105.892 53.1911 106.042 52.793C107.605 56.4361 110.327 64.8545 120.71 69.0793C128.264 72.1585 131.045 70.9725 133.4 70.78C133.762 71.6572 135.956 74.893 132.576 78.0796ZM132.083 60.9742C130.064 62.7958 125.519 57.819 125.927 53.442L128.421 54.2699L127.198 53.3167C129.571 54.2118 131.604 54.7757 134.859 53.1287C135.525 52.7171 136.128 52.2122 136.65 51.6294C133.547 53.0929 131.336 54.0148 127.543 52.5603C130.337 51.8577 132.701 50.9849 134.022 50.5956C134.914 50.3528 135.763 49.9739 136.538 49.4722L136.901 50.5956C136.826 50.7605 136.738 50.9192 136.637 51.07C136.637 51.07 137.9 49.8884 138.025 48.8054C138.186 48.7338 138.28 48.877 138.432 49.0112C140.886 60.6475 137.891 60.0612 136.422 56.9015C135.549 57.7966 134.546 58.3919 132.97 57.998C132.983 57.998 133.153 60.012 132.083 60.9742V60.9742ZM126.155 52.1754C127.292 51.3251 128.51 50.1167 129.791 49.5707C131.864 48.6756 132.925 49.1231 133.668 48.8367C135.083 48.3355 135.052 47.2345 136.189 47.4404C136.785 47.5522 137.268 47.597 137.644 47.6328C137.286 48.5816 136.565 47.4717 135.809 47.7805C135.271 47.9998 134.846 48.8054 133.812 49.1589C132.777 49.5125 132.088 49.3201 131.573 49.4901C129.979 49.9869 126.648 52.068 126.2 52.2023L126.155 52.1754ZM140.309 41.837C139.829 47.3285 138.777 43.3453 135.204 44.2672C133.995 44.5805 133.718 45.4711 132.652 45.8471C130.01 46.7735 125.17 46.3528 122.627 51.1684C117.016 61.8022 109.454 49.329 105.948 42.0384C105.943 42.0482 105.935 42.0563 105.926 42.0619C105.916 42.0674 105.905 42.0702 105.894 42.0698L105.948 42.0384C105.052 39.9573 102.881 34.1213 105.563 31.4942C127.252 25.779 125.524 18.9628 133.856 19.9295C136.131 21.948 135.706 22.8028 136.812 25.7969C134.94 23.8277 126.961 27.699 127.346 29.8248C127.436 30.4531 127.603 31.0679 127.843 31.6553C128.35 30.9304 128.953 30.2771 129.634 29.7129C131.255 28.5583 134.949 26.5801 137.121 26.8576C138.025 33.7364 140.765 36.6365 140.309 41.837V41.837ZM134.268 8.38276C139.641 7.93521 147.401 12.9522 147.723 19.1821C147.034 13.2387 139.453 8.49018 134.291 8.91535C132.607 9.05409 127.292 9.49716 118.664 22.3418C117.504 24.0604 116.64 25.4747 112.454 27.9451C115.521 26.1325 116.909 24.3647 118.619 21.8092C127.279 8.9601 132.585 8.5215 134.268 8.38276V8.38276ZM119.739 4.5965C121.581 5.67913 123.34 6.89524 125.004 8.23507C122.854 9.15788 120.805 10.3023 118.892 11.6499C121.294 10.5716 123.823 9.80457 126.419 9.36738L126.822 9.70304C121.189 11.2784 114.343 15.6599 109.879 19.7192C106.745 15.5973 101.842 12.4331 96.7599 13.9503C104.891 3.27623 114.487 1.75457 119.739 4.5965V4.5965ZM94.0286 33.5753C92.3585 28.9834 91.1451 21.4557 96.6346 14.1159C101.694 13.0373 106.149 16.4834 108.724 20.8022C106.328 23.0417 104.346 25.6872 102.872 28.6164C102.909 28.5752 102.943 28.5318 102.975 28.4867C109.458 27.3946 112.154 26.786 117.406 19.6431C118.539 18.1438 119.56 16.564 120.903 15.2482C119.519 16.2731 118.154 18.0364 117.066 19.379C111.594 26.0923 110.202 26.2355 103.723 27.5334C109.543 20.2115 118.024 14.465 125.376 11.8692C121.906 15.1542 119.085 19.5223 116.81 22.7267C111.984 29.5071 101.743 30.1694 101.255 30.6125C99.1778 32.5012 96.46 36.556 95.9047 37.5719C95.8107 37.4197 95.6988 37.2228 95.5734 36.9946C96.1644 35.0477 97.9152 32.3893 99.2136 30.6752C97.547 32.0596 96.0541 33.6405 94.7674 35.3834C94.7361 35.3207 94.7092 35.2581 94.6824 35.1954C95.0818 33.8085 95.636 32.4708 96.3346 31.2078C95.5074 31.9377 94.7365 32.7292 94.0286 33.5753V33.5753ZM103.575 52.981C101.537 52.4977 101.448 50.5419 99.8316 49.0918C97.9196 47.3016 96.6212 47.4359 95.3271 45.5114C93.0257 42.1503 94.548 35.9921 100.83 40.9956C102.075 42.1792 102.999 43.659 103.517 45.2966C103.528 45.3212 103.537 45.3466 103.543 45.3727C104.09 47.4179 104.748 49.4319 105.514 51.4056C105.178 52.5648 104.761 53.2406 103.575 52.981V52.981ZM104.743 65.2483C105.59 66.5417 107.918 69.0838 111.084 72.0242C113.99 74.7289 117.046 77.269 120.236 79.6325C121.579 80.6351 122.989 81.6062 124.395 82.5148L115.44 87.3796C102.402 74.3604 100.257 76.9159 104.743 65.2483V65.2483ZM75.6035 136.382C75.4752 135.057 75.3259 133.737 75.1558 132.421C77.9901 129.651 82.7094 127.077 86.4661 125.855C87.9059 125.374 89.3707 124.971 90.8541 124.647C84.9213 125.578 79.7632 127.149 74.9274 130.675C74.4404 126.803 73.7242 122.962 72.7827 119.173C71.1708 112.957 70.5797 105.747 72.1111 99.5708C74.323 90.6422 79.5035 89.2548 81.7378 88.1449C89.1616 86.8023 96.5674 89.9351 101.439 98.6041C98.0719 91.6627 92.5242 86.9679 84.787 86.5964C89.7123 84.014 97.6689 79.5251 101.542 75.4882L101.605 75.6136C102.196 76.8622 103.843 78.6345 104.811 79.6415C107.972 82.922 112.691 87.1424 116.282 91.1435C116.416 91.7432 116.555 92.3385 116.69 92.9337L116.515 92.3161L120.966 122.1C120.319 125.352 119.282 128.514 117.876 131.517C119.241 129.47 120.422 127.306 121.404 125.05L122.6 133.043L109.248 133.755V133.674C111.375 127.749 111.187 120.073 111.008 113.615C110.488 117.813 109.79 123.524 108.263 128.259C107.425 123.685 108.303 118.381 104.582 106.548C105.925 114.367 106.651 120.565 106.217 129.794C98.5957 126.406 81.9617 130.564 75.6035 136.382ZM106.203 129.861C106.203 129.919 106.203 129.973 106.203 130.027C105.984 129.928 105.755 129.839 105.536 129.754L106.203 129.861ZM186.212 179.772L186.297 179.812C188.536 187.196 193.341 197.499 196.824 204.378C194.402 203.89 191.559 204.53 189.512 204.906C188.044 201.182 182.689 191.479 181.229 187.666C182.124 191.515 185.894 201.469 186.915 205.389C185.715 205.604 181.283 206.423 180.199 205.859C181.126 205.371 184.932 205.036 184.014 202.494C182.263 194.21 177.11 188.172 175.507 180.071C176.129 187.68 179.984 193.945 181.135 201.272C170.353 200.878 121.727 209.27 107.224 214.197C108.567 209.856 111.048 206.62 113.045 202.503C114.211 200.124 115.059 197.602 115.566 195.002C116.012 192.432 116.205 189.826 116.143 187.219C115.918 189.783 115.441 192.32 114.719 194.791C112.852 200.851 109.597 204.19 106.731 208.482C108.522 204.006 111.209 198.6 110.613 192.513C110.264 196.859 108.393 200.439 106.181 204.02C104.452 197.172 102.151 201.057 105.343 188.942C105.618 187.951 105.836 186.945 105.997 185.93C107.296 181.36 103.79 176.567 109.409 174.978C115.96 173.126 120.254 171.644 123.813 169.8C120.921 173.224 118.7 176.487 117.934 181.293C120.621 173.305 127.006 170.825 130.234 166.694L132.688 167.997C152.138 169.787 170.299 172.642 184.381 178.93C185.433 182.614 187.345 187.957 189.203 190.956C187.847 187.944 186.772 183.061 186.212 179.772ZM133.722 159.959C138.983 156.826 142.937 152.041 149.931 149.334C152.035 148.519 155.492 151.267 158.774 152.467L134.116 161.65C133.995 161.095 133.852 160.527 133.722 159.959ZM192.826 146.147C191.586 146.417 190.332 146.613 189.069 146.734C189.325 146.169 189.512 145.575 189.624 144.966C189.206 145.591 188.693 146.147 188.102 146.613L187.788 146.496L187.985 145.534L186.991 146.17C180.571 143.395 184.775 145.172 175.968 141.385C177.292 142.351 178.666 143.247 180.083 144.071C187.977 148.707 188.675 148.282 190.479 147.96C188.456 148.953 185.478 149.361 183.226 149.486C183.306 149.269 183.371 149.046 183.418 148.819C183.109 149.083 182.762 149.299 182.389 149.459L182.138 149.437C182.502 148.901 182.738 148.288 182.827 147.647C182.38 148.396 181.685 148.966 180.862 149.258C178.112 148.685 176.51 147.378 172.802 146.17C173.577 146.805 174.383 147.382 175.202 147.96C177.127 149.262 178.927 150.462 181.363 150.744C180.919 151.264 180.362 151.677 179.736 151.953C179.11 152.229 178.429 152.36 177.745 152.337C177.946 151.958 178.05 151.535 178.05 151.106C177.915 151.379 177.726 151.621 177.495 151.82C177.265 152.018 176.996 152.168 176.707 152.261L176.474 152.216L176.38 152.238C173.214 151.303 170.85 150.068 168.817 149.428C170.505 151.018 172.48 152.273 174.638 153.125C172.681 154.047 170.729 153.389 165.128 152.552C162.602 152.149 158.313 150.314 155.116 147.669C154.316 146.884 153.412 146.214 152.429 145.677C148.959 143.784 144.746 144.379 140.998 145.637C143.797 145.521 146.277 145.266 148.847 145.821C146.805 146.335 145.185 147.718 143.922 148.631C128.757 159.82 111.854 163.033 97.0107 166.837C95.8644 167.173 93.9615 167.522 92.9137 166.945C91.1585 163.991 91.4093 162.362 90.7824 159.435C90.3782 160.85 90.2266 162.326 90.3347 163.794C84.6482 157.17 77.9453 140.15 84.8004 135.433C88.5795 132.833 93.5227 130.094 98.0763 129.794C100.812 129.624 103.629 129.816 106.158 130.855C106.073 132.135 105.943 133.728 105.773 135.151C103.582 135.092 101.395 135.363 99.2853 135.957C101.156 135.842 103.034 135.978 104.869 136.359C101.264 137.004 97.7808 138.194 95.2913 140.924C95.2913 140.965 95.3137 140.965 95.3227 140.956C101.694 135.822 111.442 137.595 122.703 136.825C124.774 136.909 126.838 137.111 128.886 137.429C128.179 136.903 127.397 136.484 126.567 136.185C132.218 134.677 143.219 131.199 148.673 128.988C148.13 129.93 147.844 130.998 147.844 132.085C152.716 124.79 154.516 127.856 165.934 116.685L167.89 117.764L166.614 116.009C168.584 114.036 168.593 113.678 170.308 112.326C172.18 113.669 174.504 110.648 174.298 109.014C174.507 109.078 174.691 109.204 174.826 109.377C176.205 112.062 174.66 114.77 172.493 116.882L171.244 116.64L171.898 117.424L171.71 117.58C170.985 117.212 170.237 116.892 169.471 116.622C170.046 117.133 170.589 117.679 171.096 118.256C169.753 120.167 167.581 122.329 168.642 125.981C168.092 125.67 167.502 125.436 166.887 125.287C167.821 126.517 168.87 127.655 170.022 128.684C171.41 130.568 171.539 130.474 182.747 138.709C182.792 138.745 189.463 142.737 189.485 142.737C189.443 143.011 189.351 143.275 189.212 143.516C189.555 143.403 189.872 143.221 190.144 142.983L195.159 143.771C195.338 144.002 195.469 144.267 195.544 144.55C195.741 145.48 193.793 146.009 192.83 146.147H192.826ZM171.029 111.744C171.08 111.709 171.122 111.663 171.154 111.61C171.728 110.545 172.945 108.723 174.141 108.925C173.98 109.842 172.256 112.004 171.033 111.744H171.029ZM189.835 140.898C182.093 136.377 185.594 138.66 174.141 130.456C167.214 125.484 170.031 122.159 172.439 118.681C175.148 116.018 177.307 112.295 175.39 108.969C175.206 108.725 174.965 108.53 174.687 108.401C173.022 107.631 171.454 109.663 170.465 111.086C166.713 113.499 167.523 114.528 158.64 121.201C151.699 126.339 148.82 128.116 127.682 134.18C124.082 118.793 120.46 103.403 116.815 88.0107C137.868 76.813 158.87 65.5914 179.818 54.346L200.532 136.914L189.835 140.898ZM203.357 136.516L181.386 54.167C200.538 57.5028 219.681 60.7997 238.815 64.0578L258.126 134.829L203.357 136.516Z" fill="#381A1A"/>
</g>
<defs>
<clipPath id="clip0_3085_24539">
<rect width="306" height="230" fill="white"/>
</clipPath>
</defs>
</svg>
