<svg width="72" height="73" viewBox="0 0 72 73" fill="none" xmlns="http://www.w3.org/2000/svg">
<g clip-path="url(#clip0_3624_27805)">
<path d="M27 0C22.0359 0 18 4.09199 18 9.125V24.0387C18.1406 24.0387 18.2953 24.0102 18.4219 23.9531L20.6438 23.0264C22.05 22.4418 23.6672 22.8838 24.5953 24.0957L26.0719 26.0205C26.2547 26.2629 26.5219 26.4055 26.8031 26.4482L29.1797 26.7762C30.6844 26.99 31.8656 28.1877 32.0625 29.699L32.3859 32.1086C32.4281 32.408 32.5828 32.6789 32.8078 32.85L34.7063 34.3471C35.9016 35.2881 36.3375 36.9277 35.7609 38.3535L34.875 40.6348C34.7625 40.9057 34.7625 41.2193 34.875 41.5045L35.7891 43.7572C36.3656 45.183 35.9297 46.8227 34.7344 47.7637L32.8359 49.2607C32.5969 49.4461 32.4563 49.717 32.4141 50.0022L32.0906 52.4117C31.8797 53.9373 30.6984 55.135 29.2078 55.3488L27 55.634V70.7188C27 71.56 26.55 72.3299 25.8047 72.7291C25.7063 72.7861 25.5937 72.8289 25.4812 72.8717C25.9734 72.9572 26.4797 73 26.9859 73H63C67.9641 73 72 68.908 72 63.875V22.8125H54C51.5109 22.8125 49.5 20.7736 49.5 18.25V0H27Z" fill="#1A88CA"/>
<path d="M72.0001 22.8125L49.5001 0V18.25C49.5001 20.7736 51.511 22.8125 54.0001 22.8125H72.0001ZM15.3563 23.0406C13.9501 22.4561 12.3329 22.898 11.4048 24.11L9.9282 26.0348C9.74539 26.2771 9.4782 26.4197 9.19695 26.4625L6.82039 26.7904C5.3157 27.0043 4.13445 28.202 3.93758 29.7133L3.61414 32.1229C3.57195 32.4223 3.41726 32.6932 3.19226 32.8643L1.27976 34.3756C0.0844502 35.3166 -0.351487 36.9563 0.225075 38.382L1.12508 40.6348C1.23758 40.9057 1.23758 41.2193 1.12508 41.5045L0.225075 43.743C-0.351487 45.1687 0.0844502 46.8084 1.27976 47.7494L3.1782 49.2465C3.41726 49.4318 3.55789 49.7027 3.60008 49.9879L3.92351 52.3975C4.13445 53.923 5.3157 55.1207 6.80633 55.3346L9.00008 55.634V70.7188C9.00008 71.56 9.45008 72.3299 10.1954 72.7291C10.9407 73.1283 11.8126 73.0855 12.5016 72.615L18.0001 68.8938L23.4985 72.615C24.1876 73.0855 25.0735 73.1283 25.8048 72.7291C26.536 72.3299 27.0001 71.56 27.0001 70.7188V55.634L29.1798 55.3346C30.6845 55.1207 31.8657 53.923 32.0626 52.3975L32.386 49.9879C32.4282 49.6885 32.5829 49.4176 32.8079 49.2465L34.7063 47.7494C35.9016 46.8084 36.3376 45.1687 35.761 43.743L34.8751 41.4902C34.7626 41.2193 34.7626 40.9057 34.8751 40.6205L35.7891 38.3678C36.3657 36.942 35.9298 35.3023 34.7345 34.3613L32.836 32.8643C32.597 32.6789 32.4563 32.408 32.4141 32.1229L32.0907 29.7133C31.8798 28.1877 30.6985 26.99 29.2079 26.7904L26.8313 26.4625C26.536 26.4197 26.2688 26.2629 26.1001 26.0348L24.6235 24.11C23.6954 22.898 22.0782 22.4561 20.672 23.0406L18.422 23.9531C18.1548 24.0672 17.8454 24.0672 17.5641 23.9531L15.3423 23.0264L15.3563 23.0406ZM9.00008 41.0625C9.00008 38.6424 9.94829 36.3214 11.6361 34.6101C13.3239 32.8989 15.6131 31.9375 18.0001 31.9375C20.387 31.9375 22.6762 32.8989 24.364 34.6101C26.0519 36.3214 27.0001 38.6424 27.0001 41.0625C27.0001 43.4826 26.0519 45.8036 24.364 47.5148C22.6762 49.2261 20.387 50.1875 18.0001 50.1875C15.6131 50.1875 13.3239 49.2261 11.6361 47.5148C9.94829 45.8036 9.00008 43.4826 9.00008 41.0625Z" fill="white"/>
</g>
<defs>
<clipPath id="clip0_3624_27805">
<rect width="72" height="73" fill="white"/>
</clipPath>
</defs>
</svg>
