<svg width="81" height="73" viewBox="0 0 81 73" fill="none" xmlns="http://www.w3.org/2000/svg">
<g clip-path="url(#clip0_3624_27817)">
<path d="M9.01406 63.874L9 38.5664L40.5 10.6211L72.0141 38.5807L72.0703 63.8598C72.0844 68.907 68.0484 72.999 63.0703 72.999H18.0141C13.05 72.999 9.01406 68.9213 9.01406 63.874ZM24.75 45.2391C24.75 47.5488 25.6641 49.773 27.2672 51.4127L38.8969 63.2039C39.7687 64.0879 41.2031 64.0879 42.075 63.2039L53.7047 51.4127C55.3219 49.773 56.2219 47.5488 56.2219 45.2391C56.2219 40.4199 52.3687 36.499 47.6016 36.499C45.3234 36.499 43.1297 37.4258 41.5125 39.0512L40.4719 40.1062L39.4312 39.0512C37.8141 37.4115 35.6203 36.499 33.3422 36.499C28.5891 36.499 24.7219 40.4057 24.7219 45.2391H24.75Z" fill="#1A88CA"/>
<path d="M43.4682 1.12671C41.7666 -0.370361 39.2354 -0.370361 37.5338 1.12671L1.5338 33.0642C-0.336509 34.7181 -0.519322 37.6124 1.11193 39.5087C2.74318 41.405 5.59787 41.5904 7.46818 39.9365L40.501 10.6224L73.5338 39.9365C75.4041 41.5904 78.2447 41.405 79.89 39.5087C81.5353 37.6124 81.3385 34.7324 79.4682 33.0642L43.4682 1.12671ZM24.751 45.2404C24.751 47.5501 25.6651 49.7744 27.2682 51.414L38.8979 63.2052C39.7697 64.0892 41.2041 64.0892 42.076 63.2052L53.7057 51.414C55.3229 49.7744 56.2229 47.5501 56.2229 45.2404C56.2229 40.4212 52.3697 36.5003 47.6026 36.5003C45.3244 36.5003 43.1307 37.4271 41.5135 39.0525L40.4729 40.1076L39.4322 39.0525C37.815 37.4128 35.6213 36.5003 33.3432 36.5003C28.5901 36.5003 24.7229 40.407 24.7229 45.2404H24.751Z" fill="white"/>
</g>
<defs>
<clipPath id="clip0_3624_27817">
<rect width="81" height="73" fill="white"/>
</clipPath>
</defs>
</svg>
