<svg width="80" height="80" viewBox="0 0 80 80" fill="none" xmlns="http://www.w3.org/2000/svg">
<g id="pipe-valve-duotone" clip-path="url(#clip0_3653_2995)">
<path id="Vector" opacity="0.4" d="M39.75 5.11719C42.4811 5.11719 44.6875 7.32363 44.6875 10.0547V11.9062L39.75 12.5234L34.8125 11.9062V10.0547C34.8125 7.32363 37.0189 5.11719 39.75 5.11719ZM39.75 17.4609L44.6875 18.0781V29.8047H69.375V69.3047H10.125V29.8047H34.8125V18.0781L39.75 17.4609Z" fill="#1A88CA"/>
<path id="Vector_2" d="M20 19.9297L39.75 17.4609L59.5 19.9297C62.2311 19.9297 64.4375 17.7232 64.4375 14.9922C64.4375 12.2611 62.2311 10.0547 59.5 10.0547L39.75 12.5234L20 10.0547C17.2689 10.0547 15.0625 12.2611 15.0625 14.9922C15.0625 17.7232 17.2689 19.9297 20 19.9297ZM5.1875 24.8672C2.45645 24.8672 0.25 27.0736 0.25 29.8047V69.3047C0.25 72.0357 2.45645 74.2422 5.1875 74.2422C7.91855 74.2422 10.125 72.0357 10.125 69.3047V29.8047C10.125 27.0736 7.91855 24.8672 5.1875 24.8672ZM79.25 29.8047C79.25 27.0736 77.0436 24.8672 74.3125 24.8672C71.5814 24.8672 69.375 27.0736 69.375 29.8047V69.3047C69.375 72.0357 71.5814 74.2422 74.3125 74.2422C77.0436 74.2422 79.25 72.0357 79.25 69.3047V29.8047Z" fill="#1A88CA"/>
</g>
<defs>
<clipPath id="clip0_3653_2995">
<rect width="79" height="79" fill="white" transform="translate(0.25 0.179688)"/>
</clipPath>
</defs>
</svg>
