<svg width="81" height="81" viewBox="0 0 81 81" fill="none" xmlns="http://www.w3.org/2000/svg">
<g clip-path="url(#clip0_3624_27690)">
<path d="M59.7982 40.5791L59.687 40.2785C54.2859 25.4391 45.4219 12.1025 33.8414 1.34473L33.3172 0.870117C32.7294 0.316406 31.9352 0 31.125 0C30.3148 0 29.5206 0.316406 28.9328 0.870117L28.4086 1.34473C16.8281 12.1025 7.96406 25.4391 2.56302 40.2785L2.45182 40.5791C1.24453 43.8697 0.625 47.366 0.625 50.8781C0.625 67.5053 14.4135 81 31.125 81C47.8365 81 61.625 67.5053 61.625 50.8781C61.625 47.366 61.0055 43.8855 59.7982 40.5791ZM30.6167 23.4615C30.9344 23.0344 31.4427 22.7812 31.9669 22.7812C32.9042 22.7812 33.6667 23.5406 33.6667 24.474V26.2775C33.6667 27.6855 34.2385 29.0303 35.2393 30.0111L43.4203 38.032C46.931 41.4809 48.9167 46.1953 48.9167 51.0996C48.9167 60.6234 41.1646 68.3438 31.6016 68.3438H31.125C21.2919 68.3438 13.3333 60.4178 13.3333 50.625V49.3277C13.3333 45.9738 14.5724 42.7465 16.7964 40.2469L17.8924 39.0129C18.226 38.6332 18.7026 38.4275 19.2109 38.4275C20.1799 38.4275 20.9583 39.2027 20.9583 40.1678V47.1287C20.9583 50.973 24.1036 54.0896 27.9638 54.0896C31.8081 54.0896 34.9375 50.9889 34.9375 47.1604C34.9375 45.3252 34.2068 43.5533 32.9042 42.2561L30.8073 40.1678C28.5833 37.9529 27.3284 34.9312 27.3284 31.783C27.3284 29.2201 28.1703 26.7205 29.7112 24.6797L30.6326 23.4457L30.6167 23.4615Z" fill="#1A88CA" fill-opacity="0.4"/>
</g>
<g clip-path="url(#clip1_3624_27690)">
<path d="M57.5945 20.3539L61.8333 17V21.5879C61.8333 22.9695 62.4099 24.2984 63.4242 25.2477L72.4677 33.7695C77.6781 38.6844 80.625 45.4977 80.625 52.6168C80.625 62.7734 72.2969 71 62.0148 71H58.8224C48.2201 71 39.625 62.5098 39.625 52.0367C39.625 45.9617 42.7 40.2875 47.8143 36.9125L49.875 35.5625V47.375C49.875 51.098 52.9393 54.125 56.7083 54.125C60.4773 54.125 63.5417 51.098 63.5417 47.375V46.9637C63.5417 45.0652 62.7729 43.2406 61.4169 41.9012L56.6443 37.1867C54.4982 35.0668 53.2917 32.1875 53.2917 29.1922C53.2917 25.7539 54.8719 22.5055 57.5945 20.3539Z" fill="#1A88CA"/>
</g>
<defs>
<clipPath id="clip0_3624_27690">
<rect width="61" height="81" fill="white" transform="translate(0.625)"/>
</clipPath>
<clipPath id="clip1_3624_27690">
<rect width="41" height="54" fill="white" transform="translate(39.625 17)"/>
</clipPath>
</defs>
</svg>
