<svg width="90" height="73" viewBox="0 0 90 73" fill="none" xmlns="http://www.w3.org/2000/svg">
<g clip-path="url(#clip0_3624_27808)">
<path d="M31.5 11.4062C31.5 8.38112 30.3147 5.4799 28.205 3.34081C26.0952 1.20173 23.2337 0 20.25 0C17.2663 0 14.4048 1.20173 12.295 3.34081C10.1853 5.4799 9 8.38112 9 11.4062C9 14.4314 10.1853 17.3326 12.295 19.4717C14.4048 21.6108 17.2663 22.8125 20.25 22.8125C23.2337 22.8125 26.0952 21.6108 28.205 19.4717C30.3147 17.3326 31.5 14.4314 31.5 11.4062ZM83.25 11.4062C83.25 8.38112 82.0647 5.4799 79.9549 3.34081C77.8452 1.20173 74.9837 0 72 0C69.0163 0 66.1548 1.20173 64.0451 3.34081C61.9353 5.4799 60.75 8.38112 60.75 11.4062C60.75 14.4314 61.9353 17.3326 64.0451 19.4717C66.1548 21.6108 69.0163 22.8125 72 22.8125C74.9837 22.8125 77.8452 21.6108 79.9549 19.4717C82.0647 17.3326 83.25 14.4314 83.25 11.4062ZM15.0047 27.375C6.72187 27.375 0 34.1902 0 42.5881C0 44.2563 1.35 45.625 2.99531 45.625H33.0047C33.0328 45.625 33.0609 45.625 33.1031 45.625C29.3625 42.2744 27.0141 37.384 27.0141 31.9375C27.0141 30.8539 27.1125 29.7988 27.2812 28.758C25.3687 27.8598 23.2453 27.375 21.0094 27.375H15.0047ZM56.9109 45.625C56.9391 45.625 56.9672 45.625 57.0094 45.625H87.0047C88.6641 45.625 90 44.2563 90 42.5881C90 34.1902 83.2781 27.375 74.9953 27.375H69.0047C66.7688 27.375 64.6453 27.874 62.7328 28.758C62.9156 29.7846 63 30.8539 63 31.9375C63 37.384 60.6375 42.2744 56.9109 45.625Z" fill="#1A88CA"/>
<path d="M45 45.625C46.7728 45.625 48.5283 45.271 50.1662 44.5831C51.8041 43.8952 53.2923 42.887 54.5459 41.616C55.7995 40.345 56.7939 38.8361 57.4724 37.1755C58.1508 35.5148 58.5 33.735 58.5 31.9375C58.5 30.14 58.1508 28.3602 57.4724 26.6995C56.7939 25.0389 55.7995 23.53 54.5459 22.259C53.2923 20.988 51.8041 19.9798 50.1662 19.2919C48.5283 18.604 46.7728 18.25 45 18.25C43.2272 18.25 41.4717 18.604 39.8338 19.2919C38.1959 19.9798 36.7076 20.988 35.4541 22.259C34.2005 23.53 33.2061 25.0389 32.5276 26.6995C31.8492 28.3602 31.5 30.14 31.5 31.9375C31.5 33.735 31.8492 35.5148 32.5276 37.1755C33.2061 38.8361 34.2005 40.345 35.4541 41.616C36.7076 42.887 38.1959 43.8952 39.8338 44.5831C41.4717 45.271 43.2272 45.625 45 45.625ZM36.7453 50.1875C26.3953 50.1875 18 58.6994 18 69.1932C18 71.2891 19.6734 73 21.7547 73H68.2453C70.3125 73 72 71.3033 72 69.1932C72 58.6994 63.6047 50.1875 53.2547 50.1875H36.7453Z" fill="white"/>
</g>
<defs>
<clipPath id="clip0_3624_27808">
<rect width="90" height="73" fill="white"/>
</clipPath>
</defs>
</svg>
